<?xml version="1.0" encoding="UTF-8"?>
<svg xmlns="http://www.w3.org/2000/svg" xmlns:xlink="http://www.w3.org/1999/xlink" viewBox="0 0 706.15 500">
  <defs>
    <style>
      .cls-1 {
        fill: #b1aeac;
      }

      .cls-2 {
        fill: #625d58;
      }

      .cls-3 {
        fill: #e1e0df;
      }

      .cls-4 {
        fill: #c9c8c6;
      }

      .cls-5 {
        fill: #8c8885;
      }

      .cls-6 {
        fill: #65615c;
      }

      .cls-7 {
        fill: #cac9c7;
      }

      .cls-8 {
        fill: #c7c6c4;
      }

      .cls-9 {
        fill: #e6e6e5;
      }

      .cls-10 {
        fill: #c2c0be;
      }

      .cls-11 {
        fill: #b7b5b3;
      }

      .cls-12 {
        fill: #d3d1d0;
      }

      .cls-13 {
        fill: #989592;
      }

      .cls-14 {
        fill: #716c68;
      }

      .cls-15 {
        fill: #969390;
      }

      .cls-16 {
        fill: #787470;
      }

      .cls-17 {
        fill: #94908d;
      }

      .cls-18 {
        fill: #b0adab;
      }

      .cls-19 {
        fill: #8a8783;
      }

      .cls-20 {
        fill: #e9e9e8;
      }

      .cls-21 {
        fill: #76726e;
      }

      .cls-22 {
        fill: #7d7975;
      }

      .cls-23 {
        fill: #7f7b77;
      }

      .cls-24 {
        fill: #e5e4e3;
      }

      .cls-25 {
        fill: #e3e2e1;
      }

      .cls-26 {
        fill: #a5a3a0;
      }

      .cls-27 {
        fill: #fcfcfc;
      }

      .cls-28 {
        fill: #999693;
      }

      .cls-29 {
        fill: #dedddc;
      }

      .cls-30 {
        fill: #e2e1e0;
      }

      .cls-31 {
        fill: #f3f2f2;
      }

      .cls-32 {
        fill: #d9d8d7;
      }

      .cls-33 {
        fill: #6e6965;
      }

      .cls-34 {
        fill: #94918e;
      }

      .cls-35 {
        fill: #86837f;
      }

      .cls-36 {
        fill: #fff;
      }

      .cls-37 {
        fill: #888581;
      }

      .cls-38 {
        fill: #ffa366;
      }

      .cls-39 {
        fill: #95928f;
      }

      .cls-40 {
        fill: #e7e7e6;
      }

      .cls-41 {
        fill: #a3a09d;
      }

      .cls-42 {
        fill: #5f5a55;
      }

      .cls-43 {
        fill: #a4a19e;
      }

      .cls-44 {
        fill: #5c5752;
      }

      .cls-45 {
        fill: #7e7a76;
      }

      .cls-46 {
        fill: #aba9a6;
      }

      .cls-47 {
        fill: #f7f6f6;
      }

      .cls-48 {
        fill: #5e5954;
      }

      .cls-49 {
        fill: #625e59;
      }

      .cls-50 {
        fill: #dddcdb;
      }

      .cls-51 {
        fill: #8d8986;
      }

      .cls-52 {
        fill: #b5b3b1;
      }

      .cls-53 {
        fill: #c0bebc;
      }

      .cls-54 {
        fill: #8f8b88;
      }

      .cls-55 {
        fill: #d0cecd;
      }

      .cls-56 {
        fill: #e6e5e4;
      }

      .cls-57 {
        fill: #d7d6d5;
      }

      .cls-58 {
        fill: #9c9996;
      }

      .cls-59 {
        fill: url(#radial-gradient);
      }

      .cls-60 {
        fill: #605b56;
      }

      .cls-61 {
        fill: #bbb9b7;
      }

      .cls-62 {
        fill: #ffc299;
      }

      .cls-63 {
        fill: #cccbc9;
      }

      .cls-64 {
        fill: #eaeae9;
      }

      .cls-65 {
        fill: #afacaa;
      }

      .cls-66 {
        fill: #918d8a;
      }

      .cls-67 {
        fill: #fbfbfb;
      }

      .cls-68 {
        fill: #f9f9f9;
      }

      .cls-69 {
        fill: #a6a4a1;
      }

      .cls-70 {
        fill: #d2d0cf;
      }

      .cls-71 {
        fill: #d8d7d6;
      }

      .cls-72 {
        fill: #736f6b;
      }

      .cls-73 {
        fill: #84817d;
      }

      .cls-74 {
        fill: #5a5550;
      }

      .cls-75 {
        fill: #615c57;
      }

      .cls-76 {
        fill: #77736f;
      }

      .cls-77 {
        fill: #9e9b98;
      }

      .cls-78 {
        fill: #adaaa8;
      }

      .cls-79 {
        fill: #a29f9c;
      }

      .cls-80 {
        isolation: isolate;
      }

      .cls-81 {
        fill: #f4f3f3;
      }

      .cls-82 {
        fill: #6f6a66;
      }

      .cls-83 {
        fill: #e8e8e7;
      }

      .cls-84 {
        fill: #dad9d8;
      }

      .cls-85 {
        fill: #797571;
      }

      .cls-86 {
        fill: #b2afad;
      }

      .cls-87 {
        fill: #85827e;
      }

      .cls-88 {
        fill: #635f5a;
      }

      .cls-89 {
        fill: #6b6662;
      }

      .cls-90 {
        fill: #807c78;
      }

      .cls-91 {
        fill: #83807c;
      }

      .cls-92 {
        fill: #7a7672;
      }

      .cls-93 {
        fill: #e4e3e2;
      }

      .cls-94 {
        fill: #5d5853;
      }

      .cls-95 {
        fill: #67635e;
      }

      .cls-96 {
        fill: #f5f4f4;
      }

      .cls-97 {
        fill: #dbdad9;
      }

      .cls-98 {
        fill: #efeeee;
      }

      .cls-99 {
        fill: #a19e9b;
      }

      .cls-100 {
        fill: #9d9a97;
      }

      .cls-101 {
        fill: #d6d4d3;
      }

      .cls-102 {
        fill: #c5c3c1;
      }

      .cls-103 {
        fill: #706b67;
      }

      .cls-104 {
        fill: #6d6864;
      }

      .cls-105 {
        fill: #b1b0ae;
        fill-rule: evenodd;
      }

      .cls-106 {
        fill: #b9b7b5;
      }

      .cls-107 {
        fill: #b6b4b2;
      }

      .cls-108 {
        fill: #bcbab8;
      }

      .cls-109 {
        fill: #aaa8a5;
      }

      .cls-110 {
        fill: #eeeeed;
      }

      .cls-111 {
        fill: #c3c1bf;
      }

      .cls-112 {
        fill: #8b8884;
      }

      .cls-113 {
        fill: #979491;
      }

      .cls-114 {
        fill: #837f7b;
      }

      .cls-115 {
        fill: #938f8c;
      }

      .cls-116 {
        fill: #c1bfbd;
      }

      .cls-117 {
        fill: #f0efef;
      }

      .cls-118 {
        fill: #dfdedd;
      }

      .cls-119 {
        fill: #74706c;
      }

      .cls-120 {
        fill: #f2f1f1;
      }

      .cls-121 {
        fill: #bfbdbb;
      }

      .cls-122 {
        fill: #ededec;
      }

      .cls-123 {
        mix-blend-mode: multiply;
        opacity: .1;
      }

      .cls-124 {
        fill: #d5d3d2;
      }

      .cls-125 {
        fill: #5b5651;
      }

      .cls-126 {
        fill: #a7a5a2;
      }

      .cls-127 {
        fill: #827e7a;
      }

      .cls-128 {
        fill: #9a9794;
      }

      .cls-129 {
        fill: #c4c2c0;
      }

      .cls-130 {
        fill: #a8a6a3;
      }

      .cls-131 {
        fill: #b4b1af;
      }

      .cls-132 {
        fill: #f1f0f0;
      }

      .cls-133 {
        fill: #c5c4c2;
      }

      .cls-134 {
        fill: #d4d2d1;
      }

      .cls-135 {
        fill: #cdccca;
      }

      .cls-136 {
        fill: #7c7874;
      }

      .cls-137 {
        fill: #66625d;
      }

      .cls-138 {
        fill: #878480;
      }

      .cls-139 {
        fill: #b8b6b4;
      }

      .cls-140 {
        fill: #696560;
      }

      .cls-141 {
        fill: #aeaba9;
      }

      .cls-142 {
        fill: #d1cfce;
      }

      .cls-143 {
        fill: #b5b2b0;
      }

      .cls-144 {
        fill: #6c6763;
      }

      .cls-145 {
        fill: #68645f;
      }

      .cls-146 {
        fill: #726d69;
      }

      .cls-147 {
        fill: #6a6661;
      }

      .cls-148 {
        fill: #9b9895;
      }

      .cls-149 {
        fill: #bab8b6;
      }

      .cls-150 {
        fill: #817d79;
      }

      .cls-151 {
        fill: #fefefe;
      }

      .cls-152 {
        fill: #bebcba;
      }

      .cls-153 {
        fill: #cfcdcc;
      }

      .cls-154 {
        fill: #b3b0ae;
      }

      .cls-155 {
        fill: #fafafa;
      }

      .cls-156 {
        fill: #a09d9a;
      }

      .cls-157 {
        fill: #64605b;
      }

      .cls-158 {
        fill: #d6d5d4;
      }

      .cls-159 {
        fill: #f8f8f8;
      }

      .cls-160 {
        fill: #dcdbda;
      }

      .cls-161 {
        fill: #cecccb;
      }

      .cls-162 {
        fill: #908c89;
      }

      .cls-163 {
        fill: #928e8b;
      }

      .cls-164 {
        fill: #7b7773;
      }

      .cls-165 {
        fill: #a9a7a4;
      }

      .cls-166 {
        fill: #e0dfde;
      }

      .cls-167 {
        fill: #f6f5f5;
      }

      .cls-168 {
        fill: #f7f7f7;
      }

      .cls-169 {
        fill: #9f9c99;
      }

      .cls-170 {
        fill: #8e8a87;
      }

      .cls-171 {
        fill: #a4a29f;
      }

      .cls-172 {
        fill: #bdbbb9;
      }

      .cls-173 {
        fill: #fdfdfd;
      }

      .cls-174 {
        fill: #ececeb;
      }

      .cls-175 {
        fill: #898682;
      }

      .cls-176 {
        fill: #c6c5c3;
      }

      .cls-177 {
        fill: #75716d;
      }

      .cls-178 {
        fill: #736e6a;
      }

      .cls-179 {
        fill: #c8c7c5;
      }

      .cls-180 {
        fill: #acaaa7;
      }

      .cls-181 {
        fill: #cbcac8;
      }

      .cls-182 {
        fill: #ebebea;
      }
    </style>
    <radialGradient id="radial-gradient" cx="256.51" cy="246.58" fx="256.51" fy="246.58" r="438.58" gradientUnits="userSpaceOnUse">
      <stop offset=".22" stop-color="#fafafa"/>
      <stop offset=".56" stop-color="#f6f6f6"/>
      <stop offset=".85" stop-color="#ececec"/>
      <stop offset="1" stop-color="#e3e3e3"/>
    </radialGradient>
  </defs>
  <g class="cls-80">
    <g id="Layer_2">
      <g id="Objects">
        <g>
          <path class="cls-38" d="M450.06,444.52c-68.15-4.2-128.66-23.82-170.56-38.73-130.16-46.44-232.5-94.41-232.5-94.41l7.48-10.59c7.07-9.52,13.73-17.98,20.8-27.5,10.6-14.28,21.62-29.63,32.22-43.91L237.27,60.22l-34.08-13.12-126.26,164.41c-10.19,13.22-20.8,27.5-30.99,40.71,0,0-16.85,21.67-21.62,29.63L0,314.1s196.12,82.85,276.05,105.05c79.93,22.2,116.07,30,174.42,24.3l-.41,1.07Z"/>
          <path class="cls-62" d="M112.41,379.6l27.62-54.76c5.43-9.37,18.52-36.93,18.52-36.93,9.1-17.83,17.89-34.41,26.67-50.98l108.13-203.55-33.29-8.37-105.09,197.61c-8.78,16.57-17.89,34.41-26.99,52.24,0,0-15.17,29.72-18.52,36.93l-42.16,81.96s254.97,81.55,377.85,64.15c-191.17-29.29-332.74-78.3-332.74-78.3Z"/>
          <g>
            <g class="cls-123">
              <path class="cls-36" d="M581.81,405.59c39.47-36.75,62.99-82.9,62.99-133.04,0-119.89-134.41-217.08-300.21-217.08S44.37,152.66,44.37,272.55s134.41,217.08,300.21,217.08c53.36,0,103.46-10.08,146.88-27.73l124.51,38.09-34.17-94.41Z"/>
              <path class="cls-151" d="M582.12,405.28c39.47-36.75,62.99-82.9,62.99-133.04,0-119.89-134.41-217.08-300.21-217.08S44.69,152.35,44.69,272.24s134.41,217.08,300.21,217.08c53.36,0,103.46-10.08,146.88-27.73l124.51,38.09-34.17-94.41Z"/>
              <path class="cls-173" d="M582.44,404.96c39.47-36.75,62.99-82.9,62.99-133.04,0-119.89-134.41-217.08-300.21-217.08S45.01,152.03,45.01,271.92s134.41,217.08,300.21,217.08c53.36,0,103.46-10.08,146.88-27.73l124.51,38.09-34.17-94.41Z"/>
              <path class="cls-27" d="M582.76,404.64c39.47-36.75,62.99-82.9,62.99-133.04,0-119.89-134.41-217.08-300.21-217.08S45.33,151.71,45.33,271.6s134.41,217.08,300.21,217.08c53.36,0,103.46-10.08,146.88-27.73l124.51,38.09-34.17-94.41Z"/>
              <path class="cls-67" d="M583.07,404.32c39.47-36.75,62.99-82.9,62.99-133.04,0-119.89-134.41-217.08-300.21-217.08S45.64,151.39,45.64,271.29s134.41,217.08,300.21,217.08c53.36,0,103.46-10.08,146.88-27.73l124.51,38.09-34.17-94.41Z"/>
              <path class="cls-155" d="M583.39,404.01c39.47-36.75,62.99-82.9,62.99-133.04,0-119.89-134.41-217.08-300.21-217.08S45.96,151.08,45.96,270.97s134.41,217.08,300.21,217.08c53.36,0,103.46-10.08,146.88-27.73l124.51,38.09-34.17-94.41Z"/>
              <path class="cls-68" d="M583.71,403.69c39.47-36.75,62.99-82.91,62.99-133.04,0-119.89-134.41-217.08-300.21-217.08S46.28,150.76,46.28,270.65s134.41,217.08,300.21,217.08c53.36,0,103.46-10.08,146.88-27.73l124.51,38.09-34.17-94.41Z"/>
              <path class="cls-159" d="M584.03,403.37c39.47-36.75,62.99-82.91,62.99-133.04,0-119.89-134.41-217.08-300.21-217.08S46.59,150.44,46.59,270.33s134.41,217.08,300.21,217.08c53.36,0,103.46-10.08,146.88-27.73l124.51,38.09-34.17-94.41Z"/>
              <path class="cls-168" d="M584.34,403.06c39.47-36.75,62.99-82.91,62.99-133.04,0-119.89-134.41-217.08-300.21-217.08S46.91,150.13,46.91,270.02s134.41,217.08,300.21,217.08c53.36,0,103.46-10.08,146.88-27.73l124.51,38.09-34.17-94.41Z"/>
              <path class="cls-47" d="M584.66,402.74c39.47-36.75,62.99-82.91,62.99-133.04,0-119.89-134.41-217.08-300.21-217.08S47.23,149.81,47.23,269.7s134.41,217.08,300.21,217.08c53.36,0,103.46-10.08,146.88-27.73l124.51,38.09-34.17-94.41Z"/>
              <path class="cls-167" d="M584.98,402.42c39.47-36.75,62.99-82.91,62.99-133.04,0-119.89-134.41-217.08-300.21-217.08S47.54,149.49,47.54,269.38s134.41,217.08,300.21,217.08c53.36,0,103.46-10.08,146.88-27.73l124.51,38.09-34.17-94.41Z"/>
              <path class="cls-96" d="M585.29,402.11c39.47-36.75,62.99-82.91,62.99-133.04,0-119.89-134.41-217.08-300.21-217.08S47.86,149.18,47.86,269.07s134.41,217.08,300.21,217.08c53.36,0,103.46-10.08,146.88-27.73l124.51,38.09-34.17-94.41Z"/>
              <path class="cls-81" d="M585.61,401.79c39.47-36.75,62.99-82.91,62.99-133.04,0-119.89-134.41-217.08-300.21-217.08S48.18,148.86,48.18,268.75s134.41,217.08,300.21,217.08c53.36,0,103.46-10.08,146.88-27.73l124.51,38.09-34.17-94.41Z"/>
              <path class="cls-31" d="M585.93,401.47c39.47-36.75,62.99-82.91,62.99-133.04,0-119.89-134.41-217.08-300.21-217.08S48.5,148.54,48.5,268.43s134.41,217.08,300.21,217.08c53.36,0,103.46-10.08,146.88-27.73l124.51,38.09-34.17-94.41Z"/>
              <path class="cls-120" d="M586.24,401.16c39.47-36.75,62.99-82.91,62.99-133.04,0-119.89-134.41-217.08-300.21-217.08S48.81,148.22,48.81,268.12s134.41,217.08,300.21,217.08c53.36,0,103.46-10.08,146.88-27.73l124.51,38.09-34.17-94.41Z"/>
              <path class="cls-132" d="M586.56,400.84c39.47-36.75,62.99-82.91,62.99-133.04,0-119.89-134.41-217.08-300.21-217.08S49.13,147.91,49.13,267.8s134.41,217.08,300.21,217.08c53.36,0,103.46-10.08,146.88-27.73l124.51,38.09-34.17-94.41Z"/>
              <path class="cls-117" d="M586.88,400.52c39.47-36.75,62.99-82.91,62.99-133.04,0-119.89-134.41-217.08-300.21-217.08S49.45,147.59,49.45,267.48s134.41,217.08,300.21,217.08c53.36,0,103.46-10.08,146.88-27.73l124.51,38.09-34.17-94.41Z"/>
              <path class="cls-98" d="M587.2,400.2c39.47-36.75,62.99-82.91,62.99-133.04,0-119.89-134.41-217.08-300.21-217.08S49.76,147.27,49.76,267.16s134.41,217.08,300.21,217.08c53.36,0,103.46-10.08,146.88-27.73l124.51,38.09-34.17-94.41Z"/>
              <path class="cls-110" d="M587.51,399.89c39.47-36.75,62.99-82.91,62.99-133.04,0-119.89-134.41-217.08-300.21-217.08S50.08,146.96,50.08,266.85s134.41,217.08,300.21,217.08c53.36,0,103.46-10.08,146.88-27.73l124.51,38.09-34.17-94.41Z"/>
              <path class="cls-122" d="M587.83,399.57c39.47-36.75,62.99-82.91,62.99-133.04,0-119.89-134.41-217.08-300.21-217.08S50.4,146.64,50.4,266.53s134.41,217.08,300.21,217.08c53.36,0,103.46-10.08,146.88-27.73l124.51,38.09-34.17-94.41Z"/>
              <path class="cls-174" d="M588.15,399.25c39.47-36.75,62.99-82.91,62.99-133.04,0-119.89-134.41-217.08-300.21-217.08S50.71,146.32,50.71,266.21s134.41,217.08,300.21,217.08c53.36,0,103.46-10.08,146.88-27.73l124.51,38.09-34.17-94.41Z"/>
              <path class="cls-182" d="M588.46,398.94c39.47-36.75,62.99-82.91,62.99-133.04,0-119.89-134.41-217.08-300.21-217.08S51.03,146.01,51.03,265.9s134.41,217.08,300.21,217.08c53.36,0,103.46-10.08,146.88-27.73l124.51,38.09-34.17-94.41Z"/>
              <path class="cls-64" d="M588.78,398.62c39.47-36.75,62.99-82.91,62.99-133.04,0-119.89-134.41-217.08-300.21-217.08S51.35,145.69,51.35,265.58s134.41,217.08,300.21,217.08c53.36,0,103.46-10.08,146.88-27.73l124.51,38.09-34.17-94.41Z"/>
              <path class="cls-20" d="M589.1,398.3c39.47-36.75,62.99-82.91,62.99-133.04,0-119.89-134.41-217.08-300.21-217.08S51.67,145.37,51.67,265.26s134.41,217.08,300.21,217.08c53.36,0,103.46-10.08,146.88-27.73l124.51,38.09-34.17-94.41Z"/>
              <path class="cls-83" d="M589.41,397.99c39.47-36.75,62.99-82.91,62.99-133.04,0-119.89-134.41-217.08-300.21-217.08S51.98,145.05,51.98,264.95s134.41,217.08,300.21,217.08c53.36,0,103.46-10.08,146.88-27.73l124.51,38.1-34.17-94.41Z"/>
              <path class="cls-40" d="M589.73,397.67c39.47-36.75,62.99-82.91,62.99-133.04,0-119.89-134.41-217.08-300.21-217.08S52.3,144.74,52.3,264.63s134.41,217.08,300.21,217.08c53.36,0,103.46-10.08,146.88-27.73l124.51,38.1-34.17-94.41Z"/>
              <path class="cls-9" d="M590.05,397.35c39.47-36.75,62.99-82.91,62.99-133.04,0-119.89-134.41-217.08-300.21-217.08S52.62,144.42,52.62,264.31s134.41,217.08,300.21,217.08c53.36,0,103.46-10.08,146.88-27.73l124.51,38.1-34.17-94.41Z"/>
              <path class="cls-56" d="M590.37,397.03c39.47-36.75,62.99-82.91,62.99-133.04,0-119.89-134.41-217.08-300.21-217.08S52.93,144.1,52.93,263.99s134.41,217.08,300.21,217.08c53.36,0,103.46-10.08,146.88-27.73l124.51,38.1-34.17-94.41Z"/>
              <path class="cls-24" d="M590.68,396.72c39.47-36.75,62.99-82.91,62.99-133.04,0-119.89-134.41-217.08-300.21-217.08S53.25,143.79,53.25,263.68s134.41,217.08,300.21,217.08c53.36,0,103.46-10.08,146.88-27.73l124.51,38.1-34.17-94.41Z"/>
              <path class="cls-93" d="M591,396.4c39.47-36.75,62.99-82.91,62.99-133.04,0-119.89-134.41-217.08-300.21-217.08S53.57,143.47,53.57,263.36s134.41,217.08,300.21,217.08c53.36,0,103.46-10.08,146.88-27.73l124.51,38.1-34.17-94.41Z"/>
              <path class="cls-25" d="M591.32,396.08c39.47-36.75,62.99-82.91,62.99-133.04,0-119.89-134.41-217.08-300.21-217.08S53.88,143.15,53.88,263.04s134.41,217.08,300.21,217.08c53.36,0,103.46-10.08,146.88-27.73l124.51,38.1-34.17-94.41Z"/>
              <path class="cls-30" d="M591.63,395.77c39.47-36.75,62.99-82.91,62.99-133.04,0-119.89-134.41-217.08-300.21-217.08S54.2,142.84,54.2,262.73s134.41,217.08,300.21,217.08c53.36,0,103.46-10.08,146.88-27.73l124.51,38.1-34.17-94.41Z"/>
              <path class="cls-3" d="M591.95,395.45c39.47-36.75,62.99-82.91,62.99-133.04,0-119.89-134.41-217.08-300.21-217.08S54.52,142.52,54.52,262.41s134.41,217.08,300.21,217.08c53.36,0,103.46-10.08,146.88-27.73l124.51,38.1-34.17-94.41Z"/>
              <path class="cls-166" d="M592.27,395.13c39.47-36.75,62.99-82.91,62.99-133.04,0-119.89-134.41-217.08-300.21-217.08S54.84,142.2,54.84,262.09s134.41,217.08,300.21,217.08c53.36,0,103.46-10.08,146.88-27.73l124.51,38.1-34.17-94.41Z"/>
              <path class="cls-118" d="M592.58,394.82c39.47-36.75,62.99-82.91,62.99-133.04,0-119.89-134.41-217.08-300.21-217.08S55.15,141.88,55.15,261.78s134.41,217.08,300.21,217.08c53.36,0,103.46-10.08,146.88-27.73l124.51,38.1-34.17-94.41Z"/>
              <path class="cls-29" d="M592.9,394.5c39.47-36.75,62.99-82.91,62.99-133.04,0-119.89-134.41-217.08-300.21-217.08S55.47,141.57,55.47,261.46s134.41,217.08,300.21,217.08c53.36,0,103.46-10.08,146.88-27.73l124.51,38.1-34.17-94.41Z"/>
              <path class="cls-50" d="M593.22,394.18c39.47-36.75,62.99-82.91,62.99-133.04,0-119.89-134.41-217.08-300.21-217.08S55.79,141.25,55.79,261.14s134.41,217.08,300.21,217.08c53.36,0,103.46-10.08,146.88-27.73l124.51,38.1-34.17-94.41Z"/>
              <path class="cls-160" d="M593.54,393.87c39.47-36.75,62.99-82.91,62.99-133.04,0-119.89-134.41-217.08-300.21-217.08S56.1,140.93,56.1,260.82s134.41,217.08,300.21,217.08c53.36,0,103.46-10.08,146.88-27.73l124.51,38.1-34.17-94.41Z"/>
              <path class="cls-97" d="M593.85,393.55c39.47-36.75,62.99-82.91,62.99-133.04,0-119.89-134.41-217.08-300.21-217.08S56.42,140.62,56.42,260.51s134.41,217.08,300.21,217.08c53.36,0,103.46-10.08,146.88-27.73l124.51,38.1-34.17-94.41Z"/>
              <path class="cls-84" d="M594.17,393.23c39.47-36.75,62.99-82.91,62.99-133.04,0-119.89-134.41-217.08-300.21-217.08S56.74,140.3,56.74,260.19s134.41,217.08,300.21,217.08c53.36,0,103.46-10.08,146.88-27.73l124.51,38.1-34.17-94.41Z"/>
              <path class="cls-32" d="M594.49,392.91c39.47-36.75,62.99-82.91,62.99-133.04,0-119.89-134.41-217.08-300.21-217.08S57.05,139.98,57.05,259.87s134.41,217.08,300.21,217.08c53.36,0,103.46-10.08,146.88-27.73l124.51,38.1-34.17-94.41Z"/>
              <path class="cls-71" d="M594.8,392.6c39.47-36.75,62.99-82.91,62.99-133.04,0-119.89-134.41-217.08-300.21-217.08S57.37,139.67,57.37,259.56s134.41,217.08,300.21,217.08c53.36,0,103.46-10.08,146.88-27.73l124.51,38.1-34.17-94.41Z"/>
              <path class="cls-57" d="M595.12,392.28c39.47-36.75,62.99-82.91,62.99-133.04,0-119.89-134.41-217.08-300.21-217.08S57.69,139.35,57.69,259.24s134.41,217.08,300.21,217.08c53.36,0,103.46-10.08,146.88-27.73l124.51,38.1-34.17-94.41Z"/>
              <path class="cls-158" d="M595.44,391.96c39.47-36.75,62.99-82.91,62.99-133.04,0-119.89-134.41-217.08-300.21-217.08S58.01,139.03,58.01,258.92s134.41,217.08,300.21,217.08c53.36,0,103.46-10.08,146.88-27.73l124.51,38.1-34.17-94.41Z"/>
              <path class="cls-101" d="M595.75,391.65c39.47-36.75,62.99-82.91,62.99-133.04,0-119.89-134.41-217.08-300.21-217.08S58.32,138.72,58.32,258.61s134.41,217.08,300.21,217.08c53.36,0,103.46-10.08,146.88-27.73l124.51,38.1-34.17-94.41Z"/>
              <path class="cls-124" d="M596.07,391.33c39.47-36.75,62.99-82.91,62.99-133.04,0-119.89-134.41-217.08-300.21-217.08S58.64,138.4,58.64,258.29s134.41,217.08,300.21,217.08c53.36,0,103.46-10.08,146.88-27.73l124.51,38.1-34.17-94.41Z"/>
              <path class="cls-134" d="M596.39,391.01c39.47-36.75,62.99-82.91,62.99-133.04,0-119.89-134.41-217.08-300.21-217.08S58.96,138.08,58.96,257.97s134.41,217.08,300.21,217.08c53.36,0,103.46-10.08,146.88-27.73l124.51,38.1-34.17-94.41Z"/>
              <path class="cls-12" d="M596.71,390.7c39.47-36.75,62.99-82.91,62.99-133.04,0-119.89-134.41-217.08-300.21-217.08S59.27,137.76,59.27,257.65s134.41,217.08,300.21,217.08c53.36,0,103.46-10.08,146.88-27.73l124.51,38.1-34.17-94.41Z"/>
              <path class="cls-70" d="M597.02,390.38c39.47-36.75,62.99-82.91,62.99-133.04,0-119.89-134.41-217.08-300.21-217.08S59.59,137.45,59.59,257.34s134.41,217.08,300.21,217.08c53.36,0,103.46-10.08,146.88-27.73l124.51,38.1-34.17-94.41Z"/>
              <path class="cls-142" d="M597.34,390.06c39.47-36.75,62.99-82.91,62.99-133.04,0-119.89-134.41-217.08-300.21-217.08S59.91,137.13,59.91,257.02s134.41,217.08,300.21,217.08c53.36,0,103.46-10.08,146.88-27.73l124.51,38.1-34.17-94.41Z"/>
              <path class="cls-55" d="M597.66,389.74c39.47-36.75,62.99-82.91,62.99-133.04,0-119.89-134.41-217.08-300.21-217.08S60.22,136.81,60.22,256.7s134.41,217.08,300.21,217.08c53.36,0,103.46-10.08,146.88-27.73l124.51,38.1-34.17-94.41Z"/>
              <path class="cls-153" d="M597.97,389.43c39.47-36.75,62.99-82.91,62.99-133.04,0-119.89-134.41-217.08-300.21-217.08S60.54,136.5,60.54,256.39s134.41,217.08,300.21,217.08c53.36,0,103.46-10.08,146.88-27.73l124.51,38.1-34.17-94.41Z"/>
              <path class="cls-161" d="M598.29,389.11c39.47-36.75,62.99-82.91,62.99-133.04,0-119.89-134.41-217.08-300.21-217.08S60.86,136.18,60.86,256.07s134.41,217.08,300.21,217.08c53.36,0,103.46-10.08,146.88-27.73l124.51,38.1-34.17-94.41Z"/>
              <path class="cls-135" d="M598.61,388.79c39.47-36.75,62.99-82.91,62.99-133.04,0-119.89-134.41-217.08-300.21-217.08S61.17,135.86,61.17,255.75s134.41,217.08,300.21,217.08c53.36,0,103.46-10.08,146.88-27.73l124.51,38.1-34.17-94.41Z"/>
              <path class="cls-63" d="M598.92,388.48c39.47-36.75,62.99-82.91,62.99-133.04,0-119.89-134.41-217.08-300.21-217.08S61.49,135.55,61.49,255.44s134.41,217.08,300.21,217.08c53.36,0,103.46-10.08,146.88-27.73l124.51,38.1-34.17-94.41Z"/>
              <path class="cls-181" d="M599.24,388.16c39.47-36.75,62.99-82.91,62.99-133.04,0-119.89-134.41-217.08-300.21-217.08S61.81,135.23,61.81,255.12s134.41,217.08,300.21,217.08c53.36,0,103.46-10.08,146.88-27.73l124.51,38.1-34.17-94.41Z"/>
              <path class="cls-7" d="M599.56,387.84c39.47-36.75,62.99-82.91,62.99-133.04,0-119.89-134.41-217.08-300.21-217.08S62.13,134.91,62.13,254.8s134.41,217.08,300.21,217.08c53.36,0,103.46-10.08,146.88-27.73l124.51,38.1-34.17-94.41Z"/>
              <path class="cls-4" d="M599.87,387.53c39.47-36.75,62.99-82.91,62.99-133.04,0-119.89-134.41-217.08-300.21-217.08S62.44,134.59,62.44,254.48s134.41,217.08,300.21,217.08c53.36,0,103.46-10.08,146.88-27.73l124.51,38.1-34.17-94.41Z"/>
              <path class="cls-179" d="M600.19,387.21c39.47-36.75,62.99-82.91,62.99-133.04,0-119.89-134.41-217.08-300.21-217.08S62.76,134.28,62.76,254.17s134.41,217.08,300.21,217.08c53.36,0,103.46-10.08,146.88-27.73l124.51,38.1-34.17-94.41Z"/>
              <path class="cls-8" d="M600.51,386.89c39.47-36.75,62.99-82.91,62.99-133.04,0-119.89-134.41-217.08-300.21-217.08S63.08,133.96,63.08,253.85s134.41,217.08,300.21,217.08c53.36,0,103.46-10.08,146.88-27.73l124.51,38.1-34.17-94.41Z"/>
              <path class="cls-176" d="M600.83,386.58c39.47-36.75,62.99-82.91,62.99-133.04,0-119.89-134.41-217.08-300.21-217.08S63.39,133.64,63.39,253.53s134.41,217.08,300.21,217.08c53.36,0,103.46-10.08,146.88-27.73l124.51,38.1-34.17-94.41Z"/>
              <path class="cls-133" d="M601.14,386.26c39.47-36.75,62.99-82.91,62.99-133.04,0-119.89-134.41-217.08-300.21-217.08S63.71,133.33,63.71,253.22s134.41,217.08,300.21,217.08c53.36,0,103.46-10.08,146.88-27.73l124.51,38.1-34.17-94.41Z"/>
              <path class="cls-102" d="M601.46,385.94c39.47-36.75,62.99-82.91,62.99-133.04,0-119.89-134.41-217.08-300.21-217.08S64.03,133.01,64.03,252.9s134.41,217.08,300.21,217.08c53.36,0,103.46-10.08,146.88-27.73l124.51,38.1-34.17-94.41Z"/>
              <path class="cls-129" d="M601.78,385.62c39.47-36.75,62.99-82.91,62.99-133.04,0-119.89-134.41-217.08-300.21-217.08S64.34,132.69,64.34,252.58s134.41,217.08,300.21,217.08c53.36,0,103.46-10.08,146.88-27.73l124.51,38.1-34.17-94.41Z"/>
              <path class="cls-111" d="M602.09,385.31c39.47-36.75,62.99-82.91,62.99-133.04,0-119.89-134.41-217.08-300.21-217.08S64.66,132.38,64.66,252.27s134.41,217.08,300.21,217.08c53.36,0,103.46-10.08,146.88-27.73l124.51,38.1-34.17-94.41Z"/>
              <path class="cls-10" d="M602.41,384.99c39.47-36.75,62.99-82.91,62.99-133.04,0-119.89-134.41-217.08-300.21-217.08S64.98,132.06,64.98,251.95s134.41,217.08,300.21,217.08c53.36,0,103.46-10.08,146.88-27.73l124.51,38.1-34.17-94.41Z"/>
              <path class="cls-116" d="M602.73,384.67c39.47-36.75,62.99-82.91,62.99-133.04,0-119.89-134.41-217.08-300.21-217.08S65.3,131.74,65.3,251.63s134.41,217.08,300.21,217.08c53.36,0,103.46-10.08,146.88-27.73l124.51,38.1-34.17-94.41Z"/>
              <path class="cls-53" d="M603.04,384.36c39.47-36.75,62.99-82.91,62.99-133.04,0-119.89-134.41-217.08-300.21-217.08S65.61,131.42,65.61,251.31s134.41,217.08,300.21,217.08c53.36,0,103.46-10.08,146.88-27.73l124.51,38.1-34.17-94.41Z"/>
              <path class="cls-121" d="M603.36,384.04c39.47-36.75,62.99-82.91,62.99-133.04,0-119.89-134.41-217.08-300.21-217.08S65.93,131.11,65.93,251s134.41,217.08,300.21,217.08c53.36,0,103.46-10.08,146.88-27.73l124.51,38.1-34.17-94.41Z"/>
              <path class="cls-152" d="M603.68,383.72c39.47-36.75,62.99-82.91,62.99-133.04,0-119.89-134.41-217.08-300.21-217.08S66.25,130.79,66.25,250.68s134.41,217.08,300.21,217.08c53.36,0,103.46-10.08,146.88-27.73l124.51,38.1-34.17-94.41Z"/>
              <path class="cls-172" d="M604,383.41c39.47-36.75,62.99-82.91,62.99-133.04,0-119.89-134.41-217.08-300.21-217.08S66.56,130.47,66.56,250.36s134.41,217.08,300.21,217.08c53.36,0,103.46-10.08,146.88-27.73l124.51,38.1-34.17-94.41Z"/>
              <path class="cls-108" d="M604.31,383.09c39.47-36.75,62.99-82.91,62.99-133.04,0-119.89-134.41-217.08-300.21-217.08S66.88,130.16,66.88,250.05s134.41,217.08,300.21,217.08c53.36,0,103.46-10.08,146.88-27.73l124.51,38.1-34.17-94.41Z"/>
              <path class="cls-61" d="M604.63,382.77c39.47-36.75,62.99-82.91,62.99-133.04,0-119.89-134.41-217.08-300.21-217.08S67.2,129.84,67.2,249.73s134.41,217.08,300.21,217.08c53.36,0,103.46-10.08,146.88-27.73l124.51,38.1-34.17-94.41Z"/>
              <path class="cls-149" d="M604.95,382.45c39.47-36.75,62.99-82.91,62.99-133.04,0-119.89-134.41-217.08-300.21-217.08S67.51,129.52,67.51,249.41s134.41,217.08,300.21,217.08c53.36,0,103.46-10.08,146.88-27.73l124.51,38.1-34.17-94.41Z"/>
              <path class="cls-106" d="M605.26,382.14c39.47-36.75,62.99-82.91,62.99-133.04,0-119.89-134.41-217.08-300.21-217.08S67.83,129.21,67.83,249.1s134.41,217.08,300.21,217.08c53.36,0,103.46-10.08,146.88-27.73l124.51,38.1-34.17-94.41Z"/>
              <path class="cls-139" d="M605.58,381.82c39.47-36.75,62.99-82.91,62.99-133.04,0-119.89-134.41-217.08-300.21-217.08S68.15,128.89,68.15,248.78s134.41,217.08,300.21,217.08c53.36,0,103.46-10.08,146.88-27.73l124.51,38.1-34.17-94.41Z"/>
              <path class="cls-11" d="M605.9,381.5c39.47-36.75,62.99-82.91,62.99-133.04,0-119.89-134.41-217.08-300.21-217.08S68.47,128.57,68.47,248.46s134.41,217.08,300.21,217.08c53.36,0,103.46-10.08,146.88-27.73l124.51,38.1-34.17-94.41Z"/>
              <path class="cls-107" d="M606.21,381.19c39.47-36.75,62.99-82.91,62.99-133.04,0-119.89-134.41-217.08-300.21-217.08S68.78,128.25,68.78,248.14s134.41,217.08,300.21,217.08c53.36,0,103.46-10.08,146.88-27.73l124.51,38.1-34.17-94.41Z"/>
              <path class="cls-52" d="M606.53,380.87c39.47-36.75,62.99-82.91,62.99-133.04,0-119.89-134.41-217.08-300.21-217.08S69.1,127.94,69.1,247.83s134.41,217.08,300.21,217.08c53.36,0,103.46-10.08,146.88-27.73l124.51,38.1-34.17-94.41Z"/>
              <path class="cls-143" d="M606.85,380.55c39.47-36.75,62.99-82.91,62.99-133.04,0-119.89-134.41-217.08-300.21-217.08S69.42,127.62,69.42,247.51s134.41,217.08,300.21,217.08c53.36,0,103.46-10.08,146.88-27.73l124.51,38.1-34.17-94.41Z"/>
              <path class="cls-131" d="M607.17,380.24c39.47-36.75,62.99-82.91,62.99-133.04,0-119.89-134.41-217.08-300.21-217.08S69.73,127.3,69.73,247.19s134.41,217.08,300.21,217.08c53.36,0,103.46-10.08,146.88-27.73l124.51,38.1-34.17-94.41Z"/>
              <path class="cls-154" d="M607.48,379.92c39.47-36.75,62.99-82.91,62.99-133.04,0-119.89-134.41-217.08-300.21-217.08S70.05,126.99,70.05,246.88s134.41,217.08,300.21,217.08c53.36,0,103.46-10.08,146.88-27.73l124.51,38.1-34.17-94.41Z"/>
              <path class="cls-86" d="M607.8,379.6c39.47-36.75,62.99-82.91,62.99-133.04,0-119.89-134.41-217.08-300.21-217.08S70.37,126.67,70.37,246.56s134.41,217.08,300.21,217.08c53.36,0,103.46-10.08,146.88-27.73l124.51,38.1-34.17-94.41Z"/>
              <path class="cls-1" d="M608.12,379.29c39.47-36.75,62.99-82.91,62.99-133.04,0-119.89-134.41-217.08-300.21-217.08S70.68,126.35,70.68,246.24s134.41,217.08,300.21,217.08c53.36,0,103.46-10.08,146.88-27.73l124.51,38.1-34.17-94.41Z"/>
              <path class="cls-18" d="M608.43,378.97c39.47-36.75,62.99-82.91,62.99-133.04,0-119.89-134.41-217.08-300.21-217.08S71,126.04,71,245.93s134.41,217.08,300.21,217.08c53.36,0,103.46-10.08,146.88-27.73l124.51,38.1-34.17-94.41Z"/>
              <path class="cls-65" d="M608.75,378.65c39.47-36.75,62.99-82.91,62.99-133.04,0-119.89-134.41-217.08-300.21-217.08S71.32,125.72,71.32,245.61s134.41,217.08,300.21,217.08c53.36,0,103.46-10.08,146.88-27.73l124.51,38.1-34.17-94.41Z"/>
              <path class="cls-141" d="M609.07,378.33c39.47-36.75,62.99-82.91,62.99-133.04,0-119.89-134.41-217.08-300.21-217.08S71.64,125.4,71.64,245.29s134.41,217.08,300.21,217.08c53.36,0,103.46-10.08,146.88-27.73l124.51,38.1-34.17-94.41Z"/>
              <path class="cls-78" d="M609.38,378.02c39.47-36.75,62.99-82.91,62.99-133.04,0-119.89-134.41-217.08-300.21-217.08S71.95,125.08,71.95,244.97s134.41,217.08,300.21,217.08c53.36,0,103.46-10.08,146.88-27.73l124.51,38.1-34.17-94.41Z"/>
              <path class="cls-180" d="M609.7,377.7c39.47-36.75,62.99-82.91,62.99-133.04,0-119.89-134.41-217.08-300.21-217.08S72.27,124.77,72.27,244.66s134.41,217.08,300.21,217.08c53.36,0,103.46-10.08,146.88-27.73l124.51,38.1-34.17-94.41Z"/>
              <path class="cls-46" d="M610.02,377.38c39.47-36.75,62.99-82.91,62.99-133.04,0-119.89-134.41-217.08-300.21-217.08S72.59,124.45,72.59,244.34s134.41,217.08,300.21,217.08c53.36,0,103.46-10.08,146.88-27.73l124.51,38.1-34.17-94.41Z"/>
              <path class="cls-109" d="M610.34,377.07c39.47-36.75,62.99-82.91,62.99-133.04,0-119.89-134.41-217.08-300.21-217.08S72.9,124.13,72.9,244.02s134.41,217.08,300.21,217.08c53.36,0,103.46-10.08,146.88-27.73l124.51,38.1-34.17-94.41Z"/>
              <path class="cls-165" d="M610.65,376.75c39.47-36.75,62.99-82.91,62.99-133.04,0-119.89-134.41-217.08-300.21-217.08S73.22,123.82,73.22,243.71s134.41,217.08,300.21,217.08c53.36,0,103.46-10.08,146.88-27.73l124.51,38.1-34.17-94.41Z"/>
              <path class="cls-130" d="M610.97,376.43c39.47-36.75,62.99-82.91,62.99-133.04,0-119.89-134.41-217.08-300.21-217.08S73.54,123.5,73.54,243.39s134.41,217.08,300.21,217.08c53.36,0,103.46-10.08,146.88-27.73l124.51,38.1-34.17-94.41Z"/>
              <path class="cls-126" d="M611.29,376.12c39.47-36.75,62.99-82.91,62.99-133.04,0-119.89-134.41-217.08-300.21-217.08S73.85,123.18,73.85,243.07s134.41,217.08,300.21,217.08c53.36,0,103.46-10.08,146.88-27.73l124.51,38.1-34.17-94.41Z"/>
              <path class="cls-69" d="M611.6,375.8c39.47-36.75,62.99-82.91,62.99-133.04,0-119.89-134.41-217.08-300.21-217.08S74.17,122.87,74.17,242.76s134.41,217.08,300.21,217.08c53.36,0,103.46-10.08,146.88-27.73l124.51,38.1-34.17-94.41Z"/>
              <path class="cls-26" d="M611.92,375.48c39.47-36.75,62.99-82.91,62.99-133.04,0-119.89-134.41-217.08-300.21-217.08S74.49,122.55,74.49,242.44s134.41,217.08,300.21,217.08c53.36,0,103.46-10.08,146.88-27.73l124.51,38.1-34.17-94.41Z"/>
              <path class="cls-171" d="M612.24,375.16c39.47-36.75,62.99-82.91,62.99-133.04,0-119.89-134.41-217.08-300.21-217.08S74.81,122.23,74.81,242.12s134.41,217.08,300.21,217.08c53.36,0,103.46-10.08,146.88-27.73l124.51,38.1-34.17-94.41Z"/>
              <path class="cls-43" d="M612.55,374.85c39.47-36.75,62.99-82.91,62.99-133.04,0-119.89-134.41-217.08-300.21-217.08S75.12,121.91,75.12,241.8s134.41,217.08,300.21,217.08c53.36,0,103.46-10.08,146.88-27.73l124.51,38.1-34.17-94.41Z"/>
              <path class="cls-41" d="M612.87,374.53c39.47-36.75,62.99-82.91,62.99-133.04,0-119.89-134.41-217.08-300.21-217.08S75.44,121.6,75.44,241.49s134.41,217.08,300.21,217.08c53.36,0,103.46-10.08,146.88-27.73l124.51,38.1-34.17-94.41Z"/>
              <path class="cls-79" d="M613.19,374.21c39.47-36.75,62.99-82.91,62.99-133.04,0-119.89-134.41-217.08-300.21-217.08S75.76,121.28,75.76,241.17s134.41,217.08,300.21,217.08c53.36,0,103.46-10.08,146.88-27.73l124.51,38.1-34.17-94.41Z"/>
              <path class="cls-99" d="M613.51,373.9c39.47-36.75,62.99-82.91,62.99-133.04,0-119.89-134.41-217.08-300.21-217.08S76.07,120.96,76.07,240.85s134.41,217.08,300.21,217.08c53.36,0,103.46-10.08,146.88-27.73l124.51,38.1-34.17-94.41Z"/>
              <path class="cls-156" d="M613.82,373.58c39.47-36.75,62.99-82.91,62.99-133.04,0-119.89-134.41-217.08-300.21-217.08S76.39,120.65,76.39,240.54s134.41,217.08,300.21,217.08c53.36,0,103.46-10.08,146.88-27.73l124.51,38.1-34.17-94.41Z"/>
              <path class="cls-169" d="M614.14,373.26c39.47-36.75,62.99-82.91,62.99-133.04,0-119.89-134.41-217.08-300.21-217.08S76.71,120.33,76.71,240.22s134.41,217.08,300.21,217.08c53.36,0,103.46-10.08,146.88-27.73l124.51,38.1-34.17-94.41Z"/>
              <path class="cls-77" d="M614.46,372.95c39.47-36.75,62.99-82.91,62.99-133.04,0-119.89-134.41-217.08-300.21-217.08S77.02,120.01,77.02,239.9s134.41,217.08,300.21,217.08c53.36,0,103.46-10.08,146.88-27.73l124.51,38.1-34.17-94.41Z"/>
              <path class="cls-100" d="M614.77,372.63c39.47-36.75,62.99-82.91,62.99-133.04,0-119.89-134.41-217.08-300.21-217.08S77.34,119.7,77.34,239.59s134.41,217.08,300.21,217.08c53.36,0,103.46-10.08,146.88-27.73l124.51,38.1-34.17-94.41Z"/>
              <path class="cls-58" d="M615.09,372.31c39.47-36.75,62.99-82.91,62.99-133.04,0-119.89-134.41-217.08-300.21-217.08S77.66,119.38,77.66,239.27s134.41,217.08,300.21,217.08c53.36,0,103.46-10.08,146.88-27.73l124.51,38.1-34.17-94.41Z"/>
              <path class="cls-148" d="M615.41,372c39.47-36.75,62.99-82.91,62.99-133.04,0-119.89-134.41-217.08-300.21-217.08S77.98,119.06,77.98,238.95s134.41,217.08,300.21,217.08c53.36,0,103.46-10.08,146.88-27.73l124.51,38.1-34.17-94.41Z"/>
              <path class="cls-128" d="M615.72,371.68c39.47-36.75,62.99-82.91,62.99-133.04,0-119.89-134.41-217.08-300.21-217.08S78.29,118.74,78.29,238.63s134.41,217.08,300.21,217.08c53.36,0,103.46-10.08,146.88-27.73l124.51,38.1-34.17-94.41Z"/>
              <path class="cls-28" d="M616.04,371.36c39.47-36.75,62.99-82.91,62.99-133.04,0-119.89-134.41-217.08-300.21-217.08S78.61,118.43,78.61,238.32s134.41,217.08,300.21,217.08c53.36,0,103.46-10.08,146.88-27.73l124.51,38.1-34.17-94.41Z"/>
              <path class="cls-13" d="M616.36,371.04c39.47-36.75,62.99-82.91,62.99-133.04,0-119.89-134.41-217.08-300.21-217.08S78.93,118.11,78.93,238s134.41,217.08,300.21,217.08c53.36,0,103.46-10.08,146.88-27.73l124.51,38.1-34.17-94.41Z"/>
              <path class="cls-113" d="M616.68,370.73c39.47-36.75,62.99-82.91,62.99-133.04,0-119.89-134.41-217.08-300.21-217.08S79.24,117.79,79.24,237.68s134.41,217.08,300.21,217.08c53.36,0,103.46-10.08,146.88-27.73l124.51,38.1-34.17-94.41Z"/>
              <path class="cls-15" d="M616.99,370.41c39.47-36.75,62.99-82.91,62.99-133.04,0-119.89-134.41-217.08-300.21-217.08S79.56,117.48,79.56,237.37s134.41,217.08,300.21,217.08c53.36,0,103.46-10.08,146.88-27.73l124.51,38.1-34.17-94.41Z"/>
              <path class="cls-39" d="M617.31,370.09c39.47-36.75,62.99-82.91,62.99-133.04,0-119.89-134.41-217.08-300.21-217.08S79.88,117.16,79.88,237.05s134.41,217.08,300.21,217.08c53.36,0,103.46-10.08,146.88-27.73l124.51,38.1-34.17-94.41Z"/>
              <path class="cls-34" d="M617.63,369.78c39.47-36.75,62.99-82.91,62.99-133.04,0-119.89-134.41-217.08-300.21-217.08S80.19,116.84,80.19,236.73s134.41,217.08,300.21,217.08c53.36,0,103.46-10.08,146.88-27.73l124.51,38.1-34.17-94.41Z"/>
              <path class="cls-17" d="M617.94,369.46c39.47-36.75,62.99-82.91,62.99-133.04,0-119.89-134.41-217.08-300.21-217.08S80.51,116.53,80.51,236.42s134.41,217.08,300.21,217.08c53.36,0,103.46-10.08,146.88-27.73l124.51,38.1-34.17-94.41Z"/>
              <path class="cls-115" d="M618.26,369.14c39.47-36.75,62.99-82.91,62.99-133.04,0-119.89-134.41-217.08-300.21-217.08S80.83,116.21,80.83,236.1s134.41,217.08,300.21,217.08c53.36,0,103.46-10.08,146.88-27.73l124.51,38.1-34.17-94.41Z"/>
              <path class="cls-163" d="M618.58,368.83c39.47-36.75,62.99-82.91,62.99-133.04,0-119.89-134.41-217.08-300.21-217.08S81.14,115.89,81.14,235.78s134.41,217.08,300.21,217.08c53.36,0,103.46-10.08,146.88-27.73l124.51,38.1-34.17-94.41Z"/>
              <path class="cls-66" d="M618.89,368.51c39.47-36.75,62.99-82.91,62.99-133.04,0-119.89-134.41-217.08-300.21-217.08S81.46,115.58,81.46,235.46s134.41,217.08,300.21,217.08c53.36,0,103.46-10.08,146.88-27.73l124.51,38.1-34.17-94.41Z"/>
              <path class="cls-162" d="M619.21,368.19c39.47-36.75,62.99-82.91,62.99-133.04,0-119.89-134.41-217.08-300.21-217.08S81.78,115.26,81.78,235.15s134.41,217.08,300.21,217.08c53.36,0,103.46-10.08,146.88-27.73l124.51,38.1-34.17-94.41Z"/>
              <path class="cls-54" d="M619.53,367.87c39.47-36.75,62.99-82.91,62.99-133.04,0-119.89-134.41-217.08-300.21-217.08S82.1,114.94,82.1,234.83s134.41,217.08,300.21,217.08c53.36,0,103.46-10.08,146.88-27.73l124.51,38.1-34.17-94.41Z"/>
              <path class="cls-170" d="M619.84,367.56c39.47-36.75,62.99-82.91,62.99-133.04,0-119.89-134.41-217.08-300.21-217.08S82.41,114.62,82.41,234.51s134.41,217.08,300.21,217.08c53.36,0,103.46-10.08,146.88-27.73l124.51,38.1-34.17-94.41Z"/>
              <path class="cls-51" d="M620.16,367.24c39.47-36.75,62.99-82.91,62.99-133.04,0-119.89-134.41-217.08-300.21-217.08S82.73,114.31,82.73,234.2s134.41,217.08,300.21,217.08c53.36,0,103.46-10.08,146.88-27.73l124.51,38.1-34.17-94.41Z"/>
              <path class="cls-5" d="M620.48,366.92c39.47-36.75,62.99-82.91,62.99-133.04,0-119.89-134.41-217.08-300.21-217.08S83.05,113.99,83.05,233.88s134.41,217.08,300.21,217.08c53.36,0,103.46-10.08,146.88-27.73l124.51,38.1-34.17-94.41Z"/>
              <path class="cls-112" d="M620.8,366.61c39.47-36.75,62.99-82.91,62.99-133.04,0-119.89-134.41-217.08-300.21-217.08S83.36,113.67,83.36,233.56s134.41,217.08,300.21,217.08c53.36,0,103.46-10.08,146.88-27.73l124.51,38.1-34.17-94.41Z"/>
              <path class="cls-19" d="M621.11,366.29c39.47-36.75,62.99-82.91,62.99-133.04,0-119.89-134.41-217.08-300.21-217.08S83.68,113.36,83.68,233.25s134.41,217.08,300.21,217.08c53.36,0,103.46-10.08,146.88-27.73l124.51,38.1-34.17-94.41Z"/>
              <path class="cls-175" d="M621.43,365.97c39.47-36.75,62.99-82.91,62.99-133.04,0-119.89-134.41-217.08-300.21-217.08S84,113.04,84,232.93s134.41,217.08,300.21,217.08c53.36,0,103.46-10.08,146.88-27.73l124.51,38.1-34.17-94.41Z"/>
              <path class="cls-37" d="M621.75,365.66c39.47-36.75,62.99-82.91,62.99-133.04,0-119.89-134.41-217.08-300.21-217.08S84.31,112.72,84.31,232.61s134.41,217.08,300.21,217.08c53.36,0,103.46-10.08,146.88-27.73l124.51,38.1-34.17-94.41Z"/>
              <path class="cls-138" d="M622.06,365.34c39.47-36.75,62.99-82.91,62.99-133.04,0-119.89-134.41-217.08-300.21-217.08S84.63,112.41,84.63,232.29s134.41,217.08,300.21,217.08c53.36,0,103.46-10.08,146.88-27.73l124.51,38.1-34.17-94.41Z"/>
              <path class="cls-35" d="M622.38,365.02c39.47-36.75,62.99-82.91,62.99-133.04,0-119.89-134.41-217.08-300.21-217.08S84.95,112.09,84.95,231.98s134.41,217.08,300.21,217.08c53.36,0,103.46-10.08,146.88-27.73l124.51,38.1-34.17-94.41Z"/>
              <path class="cls-87" d="M622.7,364.71c39.47-36.75,62.99-82.91,62.99-133.04,0-119.89-134.41-217.08-300.21-217.08S85.27,111.77,85.27,231.66s134.41,217.08,300.21,217.08c53.36,0,103.46-10.08,146.88-27.73l124.51,38.1-34.17-94.41Z"/>
              <path class="cls-73" d="M623.01,364.39c39.47-36.75,62.99-82.91,62.99-133.04,0-119.89-134.41-217.08-300.21-217.08S85.58,111.45,85.58,231.34s134.41,217.08,300.21,217.08c53.36,0,103.46-10.08,146.88-27.73l124.51,38.1-34.17-94.41Z"/>
              <path class="cls-91" d="M623.33,364.07c39.47-36.75,62.99-82.91,62.99-133.04,0-119.89-134.41-217.08-300.21-217.08S85.9,111.14,85.9,231.03s134.41,217.08,300.21,217.08c53.36,0,103.46-10.08,146.88-27.73l124.51,38.1-34.17-94.41Z"/>
              <path class="cls-114" d="M623.65,363.75c39.47-36.75,62.99-82.91,62.99-133.04,0-119.89-134.41-217.08-300.21-217.08S86.22,110.82,86.22,230.71s134.41,217.08,300.21,217.08c53.36,0,103.46-10.08,146.88-27.73l124.51,38.1-34.17-94.41Z"/>
              <path class="cls-127" d="M623.97,363.44c39.47-36.75,62.99-82.91,62.99-133.04,0-119.89-134.41-217.08-300.21-217.08S86.53,110.5,86.53,230.39s134.41,217.08,300.21,217.08c53.36,0,103.46-10.08,146.88-27.73l124.51,38.1-34.17-94.41Z"/>
              <path class="cls-150" d="M624.28,363.12c39.47-36.75,62.99-82.91,62.99-133.04,0-119.89-134.41-217.08-300.21-217.08S86.85,110.19,86.85,230.08s134.41,217.08,300.21,217.08c53.36,0,103.46-10.08,146.88-27.73l124.51,38.1-34.17-94.41Z"/>
              <path class="cls-90" d="M624.6,362.8c39.47-36.75,62.99-82.91,62.99-133.04,0-119.89-134.41-217.08-300.21-217.08S87.17,109.87,87.17,229.76s134.41,217.08,300.21,217.08c53.36,0,103.46-10.08,146.88-27.73l124.51,38.1-34.17-94.41Z"/>
              <path class="cls-23" d="M624.92,362.49c39.47-36.75,62.99-82.91,62.99-133.04,0-119.89-134.41-217.08-300.21-217.08S87.48,109.55,87.48,229.44s134.41,217.08,300.21,217.08c53.36,0,103.46-10.08,146.88-27.73l124.51,38.1-34.17-94.41Z"/>
              <path class="cls-45" d="M625.23,362.17c39.47-36.75,62.99-82.91,62.99-133.04,0-119.89-134.41-217.08-300.21-217.08S87.8,109.24,87.8,229.12s134.41,217.08,300.21,217.08c53.36,0,103.46-10.08,146.88-27.73l124.51,38.1-34.17-94.41Z"/>
              <path class="cls-22" d="M625.55,361.85c39.47-36.75,62.99-82.91,62.99-133.04,0-119.89-134.41-217.08-300.21-217.08S88.12,108.92,88.12,228.81s134.41,217.08,300.21,217.08c53.36,0,103.46-10.08,146.88-27.73l124.51,38.1-34.17-94.41Z"/>
              <path class="cls-136" d="M625.87,361.54c39.47-36.75,62.99-82.91,62.99-133.04,0-119.89-134.41-217.08-300.21-217.08S88.44,108.6,88.44,228.49s134.41,217.08,300.21,217.08c53.36,0,103.46-10.08,146.88-27.73l124.51,38.1-34.17-94.41Z"/>
              <path class="cls-164" d="M626.18,361.22c39.47-36.75,62.99-82.91,62.99-133.04,0-119.89-134.41-217.08-300.21-217.08S88.75,108.28,88.75,228.17s134.41,217.08,300.21,217.08c53.36,0,103.46-10.08,146.88-27.73l124.51,38.1-34.17-94.41Z"/>
              <path class="cls-92" d="M626.5,360.9c39.47-36.75,62.99-82.91,62.99-133.05,0-119.89-134.41-217.08-300.21-217.08S89.07,107.97,89.07,227.86s134.41,217.08,300.21,217.08c53.36,0,103.46-10.08,146.88-27.73l124.51,38.1-34.17-94.41Z"/>
              <path class="cls-85" d="M626.82,360.58c39.47-36.75,62.99-82.91,62.99-133.05,0-119.89-134.41-217.08-300.21-217.08S89.39,107.65,89.39,227.54s134.41,217.08,300.21,217.08c53.36,0,103.46-10.08,146.88-27.73l124.51,38.1-34.17-94.41Z"/>
              <path class="cls-16" d="M627.14,360.27c39.47-36.75,62.99-82.91,62.99-133.05,0-119.89-134.41-217.08-300.21-217.08S89.7,107.33,89.7,227.22s134.41,217.08,300.21,217.08c53.36,0,103.46-10.08,146.88-27.73l124.51,38.1-34.17-94.41Z"/>
              <path class="cls-76" d="M627.45,359.95c39.47-36.75,62.99-82.91,62.99-133.05,0-119.89-134.41-217.08-300.21-217.08S90.02,107.02,90.02,226.91s134.41,217.08,300.21,217.08c53.36,0,103.46-10.08,146.88-27.73l124.51,38.1-34.17-94.41Z"/>
              <path class="cls-21" d="M627.77,359.63c39.47-36.75,62.99-82.91,62.99-133.05,0-119.89-134.41-217.08-300.21-217.08S90.34,106.7,90.34,226.59s134.41,217.08,300.21,217.08c53.36,0,103.46-10.08,146.88-27.73l124.51,38.1-34.17-94.41Z"/>
              <path class="cls-177" d="M628.09,359.32c39.47-36.75,62.99-82.91,62.99-133.05,0-119.89-134.41-217.08-300.21-217.08S90.65,106.38,90.65,226.27s134.41,217.08,300.21,217.08c53.36,0,103.46-10.08,146.88-27.73l124.51,38.1-34.17-94.41Z"/>
              <path class="cls-119" d="M628.4,359c39.47-36.75,62.99-82.91,62.99-133.05,0-119.89-134.41-217.08-300.21-217.08S90.97,106.07,90.97,225.95s134.41,217.08,300.21,217.08c53.36,0,103.46-10.08,146.88-27.73l124.51,38.1-34.17-94.41Z"/>
              <path class="cls-72" d="M628.72,358.68c39.47-36.75,62.99-82.91,62.99-133.05,0-119.89-134.41-217.08-300.21-217.08S91.29,105.75,91.29,225.64s134.41,217.08,300.21,217.08c53.36,0,103.46-10.08,146.88-27.73l124.51,38.1-34.17-94.41Z"/>
              <path class="cls-178" d="M629.04,358.37c39.47-36.75,62.99-82.91,62.99-133.05,0-119.89-134.41-217.08-300.21-217.08S91.61,105.43,91.61,225.32s134.41,217.08,300.21,217.08c53.36,0,103.46-10.08,146.88-27.73l124.51,38.1-34.17-94.41Z"/>
              <path class="cls-146" d="M629.35,358.05c39.47-36.75,62.99-82.91,62.99-133.05,0-119.89-134.41-217.08-300.21-217.08S91.92,105.11,91.92,225s134.41,217.08,300.21,217.08c53.36,0,103.46-10.08,146.88-27.73l124.51,38.1-34.17-94.41Z"/>
              <path class="cls-14" d="M629.67,357.73c39.47-36.75,62.99-82.91,62.99-133.05,0-119.89-134.41-217.08-300.21-217.08S92.24,104.8,92.24,224.69s134.41,217.08,300.21,217.08c53.36,0,103.46-10.08,146.88-27.73l124.51,38.1-34.17-94.41Z"/>
              <path class="cls-103" d="M629.99,357.41c39.47-36.75,62.99-82.91,62.99-133.05,0-119.89-134.41-217.08-300.21-217.08S92.56,104.48,92.56,224.37s134.41,217.08,300.21,217.08c53.36,0,103.46-10.08,146.88-27.73l124.51,38.1-34.17-94.41Z"/>
              <path class="cls-82" d="M630.31,357.1c39.47-36.75,62.99-82.91,62.99-133.05,0-119.89-134.41-217.08-300.21-217.08S92.87,104.16,92.87,224.05s134.41,217.08,300.21,217.08c53.36,0,103.46-10.08,146.88-27.73l124.51,38.1-34.17-94.41Z"/>
              <path class="cls-33" d="M630.62,356.78c39.47-36.75,62.99-82.91,62.99-133.05,0-119.89-134.41-217.08-300.21-217.08S93.19,103.85,93.19,223.74s134.41,217.08,300.21,217.08c53.36,0,103.46-10.08,146.88-27.73l124.51,38.1-34.17-94.41Z"/>
              <path class="cls-104" d="M630.94,356.46c39.47-36.75,62.99-82.91,62.99-133.05,0-119.89-134.41-217.08-300.21-217.08S93.51,103.53,93.51,223.42s134.41,217.08,300.21,217.08c53.36,0,103.46-10.08,146.88-27.73l124.51,38.1-34.17-94.41Z"/>
              <path class="cls-144" d="M631.26,356.15c39.47-36.75,62.99-82.91,62.99-133.05,0-119.89-134.41-217.08-300.21-217.08S93.82,103.21,93.82,223.1s134.41,217.08,300.21,217.08c53.36,0,103.46-10.08,146.88-27.73l124.51,38.1-34.17-94.41Z"/>
              <path class="cls-89" d="M631.57,355.83c39.47-36.75,62.99-82.91,62.99-133.05,0-119.89-134.41-217.08-300.21-217.08S94.14,102.9,94.14,222.78s134.41,217.08,300.21,217.08c53.36,0,103.46-10.08,146.88-27.73l124.51,38.1-34.17-94.41Z"/>
              <path class="cls-147" d="M631.89,355.51c39.47-36.75,62.99-82.91,62.99-133.05,0-119.89-134.41-217.08-300.21-217.08S94.46,102.58,94.46,222.47s134.41,217.08,300.21,217.08c53.36,0,103.46-10.08,146.88-27.73l124.51,38.1-34.17-94.41Z"/>
              <path class="cls-140" d="M632.21,355.2c39.47-36.75,62.99-82.91,62.99-133.05,0-119.89-134.41-217.08-300.21-217.08S94.78,102.26,94.78,222.15s134.41,217.08,300.21,217.08c53.36,0,103.46-10.08,146.88-27.73l124.51,38.1-34.17-94.41Z"/>
              <path class="cls-145" d="M632.52,354.88c39.47-36.75,62.99-82.91,62.99-133.05,0-119.89-134.41-217.08-300.21-217.08S95.09,101.94,95.09,221.83s134.41,217.08,300.21,217.08c53.36,0,103.46-10.08,146.88-27.73l124.51,38.1-34.17-94.41Z"/>
              <path class="cls-95" d="M632.84,354.56c39.47-36.75,62.99-82.91,62.99-133.05,0-119.89-134.41-217.08-300.21-217.08S95.41,101.63,95.41,221.52s134.41,217.08,300.21,217.08c53.36,0,103.46-10.08,146.88-27.73l124.51,38.1-34.17-94.41Z"/>
              <path class="cls-137" d="M633.16,354.25c39.47-36.75,62.99-82.91,62.99-133.05,0-119.89-134.41-217.08-300.21-217.08S95.73,101.31,95.73,221.2s134.41,217.08,300.21,217.08c53.36,0,103.46-10.08,146.88-27.73l124.51,38.1-34.17-94.41Z"/>
              <path class="cls-6" d="M633.48,353.93c39.47-36.75,62.99-82.91,62.99-133.05,0-119.89-134.41-217.08-300.21-217.08S96.04,100.99,96.04,220.88s134.41,217.08,300.21,217.08c53.36,0,103.46-10.08,146.88-27.73l124.51,38.1-34.17-94.41Z"/>
              <path class="cls-157" d="M633.79,353.61c39.47-36.75,62.99-82.91,62.99-133.05,0-119.89-134.41-217.08-300.21-217.08S96.36,100.68,96.36,220.57s134.41,217.08,300.21,217.08c53.36,0,103.46-10.08,146.88-27.73l124.51,38.1-34.17-94.41Z"/>
              <path class="cls-88" d="M634.11,353.29c39.47-36.75,62.99-82.91,62.99-133.05,0-119.89-134.41-217.08-300.21-217.08S96.68,100.36,96.68,220.25s134.41,217.08,300.21,217.08c53.36,0,103.46-10.08,146.88-27.73l124.51,38.1-34.17-94.41Z"/>
              <path class="cls-49" d="M634.43,352.98c39.47-36.75,62.99-82.91,62.99-133.05,0-119.89-134.41-217.08-300.21-217.08S96.99,100.04,96.99,219.93s134.41,217.08,300.21,217.08c53.36,0,103.46-10.08,146.88-27.73l124.51,38.1-34.17-94.41Z"/>
              <path class="cls-2" d="M634.74,352.66c39.47-36.75,62.99-82.91,62.99-133.05,0-119.89-134.41-217.08-300.21-217.08S97.31,99.73,97.31,219.61s134.41,217.08,300.21,217.08c53.36,0,103.46-10.08,146.88-27.73l124.51,38.1-34.17-94.41Z"/>
              <path class="cls-75" d="M635.06,352.34c39.47-36.75,62.99-82.91,62.99-133.05,0-119.89-134.41-217.08-300.21-217.08S97.63,99.41,97.63,219.3s134.41,217.08,300.21,217.08c53.36,0,103.46-10.08,146.88-27.73l124.51,38.1-34.17-94.41Z"/>
              <path class="cls-60" d="M635.38,352.03c39.47-36.75,62.99-82.91,62.99-133.05C698.36,99.09,563.96,1.9,398.16,1.9S97.95,99.09,97.95,218.98s134.41,217.08,300.21,217.08c53.36,0,103.46-10.08,146.88-27.73l124.51,38.1-34.17-94.41Z"/>
              <path class="cls-42" d="M635.69,351.71c39.47-36.75,62.99-82.91,62.99-133.05C698.68,98.77,564.27,1.58,398.47,1.58S98.26,98.77,98.26,218.66s134.41,217.08,300.21,217.08c53.36,0,103.46-10.08,146.88-27.73l124.51,38.1-34.17-94.41Z"/>
              <path class="cls-48" d="M636.01,351.39c39.47-36.75,62.99-82.91,62.99-133.05C699,98.46,564.59,1.27,398.79,1.27S98.58,98.46,98.58,218.35s134.41,217.08,300.21,217.08c53.36,0,103.46-10.08,146.88-27.73l124.51,38.1-34.17-94.41Z"/>
              <path class="cls-94" d="M636.33,351.08c39.47-36.75,62.99-82.91,62.99-133.05C699.32,98.14,564.91.95,399.11.95S98.9,98.14,98.9,218.03s134.41,217.08,300.21,217.08c53.36,0,103.46-10.08,146.88-27.73l124.51,38.1-34.17-94.41Z"/>
              <path class="cls-44" d="M636.65,350.76c39.47-36.75,62.99-82.91,62.99-133.05C699.63,97.82,565.23.63,399.43.63S99.21,97.82,99.21,217.71s134.41,217.08,300.21,217.08c53.36,0,103.46-10.08,146.88-27.73l124.51,38.1-34.17-94.41Z"/>
              <path class="cls-125" d="M636.96,350.44c39.47-36.75,62.99-82.91,62.99-133.05C699.95,97.51,565.54.32,399.74.32S99.53,97.51,99.53,217.4s134.41,217.08,300.21,217.08c53.36,0,103.46-10.08,146.88-27.73l124.51,38.1-34.17-94.41Z"/>
              <path class="cls-74" d="M637.28,350.12c39.47-36.75,62.99-82.91,62.99-133.05C700.27,97.19,565.86,0,400.06,0S99.85,97.19,99.85,217.08s134.41,217.08,300.21,217.08c53.36,0,103.46-10.08,146.88-27.73l124.51,38.1-34.17-94.41Z"/>
            </g>
            <path class="cls-36" d="M643.16,350.12c39.47-36.75,62.99-82.91,62.99-133.05C706.15,97.19,571.74,0,405.94,0S105.73,97.19,105.73,217.08s134.41,217.08,300.21,217.08c53.36,0,103.45-10.08,146.88-27.73l124.5,38.1-34.17-94.41Z"/>
            <path class="cls-59" d="M637.28,350.12c39.47-36.75,62.99-82.91,62.99-133.05C700.27,97.19,565.86,0,400.06,0S99.85,97.19,99.85,217.08s134.41,217.08,300.21,217.08c53.36,0,103.46-10.08,146.88-27.73l124.51,38.1-34.17-94.41Z"/>
            <g>
              <path class="cls-105" d="M314.52,222.26c0,13.13-10.65,23.78-23.78,23.78s-23.78-10.65-23.78-23.78,10.64-23.78,23.78-23.78,23.78,10.65,23.78,23.78Z"/>
              <path class="cls-105" d="M420.99,222.26c0,13.13-10.64,23.78-23.78,23.78s-23.78-10.65-23.78-23.78,10.65-23.78,23.78-23.78,23.78,10.65,23.78,23.78Z"/>
              <path class="cls-105" d="M527.45,222.26c0,13.13-10.64,23.78-23.78,23.78s-23.78-10.65-23.78-23.78,10.64-23.78,23.78-23.78,23.78,10.65,23.78,23.78Z"/>
            </g>
          </g>
        </g>
      </g>
    </g>
  </g>
</svg>