<?xml version="1.0" encoding="UTF-8"?>
<svg id="Layer_2" xmlns="http://www.w3.org/2000/svg" viewBox="0 0 600 434.87">
  <defs>
    <style>
      .cls-1 {
        fill: #ffa366;
      }

      .cls-2 {
        fill: #ffc299;
      }

      .cls-3 {
        fill: #efefef;
      }
    </style>
  </defs>
  <g id="Objects">
    <g>
      <path class="cls-1" d="M478.83,370.48c-39.82,17.48-78.67,20.4-105.87,21.37-84.5,2.91-153.46-3.89-153.46-3.89l1.94-10.68c1.94-9.71,3.89-18.45,5.83-28.17,2.91-14.57,5.83-30.11,8.74-44.68l36.91-173.86h-22.34l-35.94,169c-2.91,13.6-5.83,28.17-8.74,41.76,0,0-4.86,22.34-5.83,30.11l-6.8,33.02s130.15,5.83,180.66-.97,72.84-11.66,104.9-33.99v.97Z"/>
      <path class="cls-2" d="M179.68,414.19l8.74-44.68c1.94-7.77,5.83-30.11,5.83-30.11,2.91-14.57,5.83-28.17,8.74-41.76l35.94-167.06h-22.34l-34.97,162.2c-2.91,13.6-5.83,28.17-8.74,42.74,0,0-4.86,24.28-5.83,30.11l-13.6,67.02s173.86,12.63,248.64-22.34c-125.29,13.6-222.42,3.89-222.42,3.89Z"/>
      <path class="cls-3" d="M595.39,199.54c-18.45,104.9-98.1,176.77-205.91,180.66-48.56,1.94-150.55,0-156.37-1.94,4.86-24.28,39.82-189.4,52.45-247.67h98.1c-8.74,43.71-18.45,86.44-28.17,130.15-1.94,9.71-3.89,20.4-4.86,30.11,79.64,15.54,139.86-29.14,147.63-107.81,1.94-20.4,0-37.88-6.8-52.45-7.77-16.51-20.4-28.17-36.91-35.94-12.63-4.86-27.2-7.77-43.71-7.77H0c4.86-14.57,8.74-30.11,8.74-46.62C8.74,26.66,6.8,13.06,2.91.43h319.55c1.94,0,5.83-.97,8.74,0,37.88,1.94,75.76,0,113.64,1.94,2.91,0,6.8,0,9.71.97,74.79,9.71,128.21,60.22,141.8,128.21,4.86,21.37,4.86,44.68,0,68.96l-.97-.97Z"/>
    </g>
  </g>
</svg>