<?xml version="1.0" encoding="UTF-8"?>
<svg id="Layer_2" xmlns="http://www.w3.org/2000/svg" viewBox="0 0 681.69 467.18">
  <defs>
    <style>
      .cls-1 {
        fill: #fff;
      }

      .cls-2 {
        fill: #ffa366;
      }

      .cls-3 {
        fill: #ffc299;
      }

      .cls-4 {
        fill: #efefef;
      }

      .cls-5 {
        fill: #dcdee2;
      }
    </style>
  </defs>
  <g id="Objects">
    <g>
      <path class="cls-3" d="M40.3,439.49l13.43-59.85c2.99-10.41,8.96-40.33,8.96-40.33,4.48-19.52,8.96-37.73,13.43-55.94l55.22-223.78h-34.33l-53.73,217.27c-4.48,18.21-8.96,37.73-13.43,57.24,0,0-7.46,32.53-8.96,40.33L0,464.21s267.16,16.91,382.09-29.92c-192.54,18.21-341.79,5.2-341.79,5.2Z"/>
      <path class="cls-2" d="M213.06,42.78c66.18-23.04,129.83-24.57,174.31-24.05,138.21,1.75,250.4,16.78,250.4,16.78l-3.87,15.69c-3.81,14.25-7.55,27.06-11.35,41.31-5.71,21.37-11.48,44.19-17.19,65.56l-71.61,254.92,36.49,1.6,69.71-247.79c5.65-19.94,11.35-41.31,17-61.25,0,0,9.39-32.75,11.48-44.19l13.26-48.44S469.49-5.05,386.55,1.39c-82.94,6.45-119.74,12.04-173.55,42.83l.06-1.44Z"/>
      <g>
        <path class="cls-4" d="M576.72,64.99c-10.01-10.47-24.12-16.99-39.76-16.99H119.04c-15.64,0-29.74,6.52-39.76,16.99-9.46,9.88-15.26,23.28-15.26,38.03v263.14c0,14.75,5.8,28.14,15.27,38.03,10.01,10.48,24.11,17,39.75,17h417.93c15.64,0,29.74-6.52,39.76-16.99,9.46-9.88,15.26-23.28,15.26-38.03V103.01c0-14.75-5.79-28.14-15.26-38.03Z"/>
        <path class="cls-1" d="M576.72,64.99l-193.66,169.6-32.62,28.57c-12.85,11.25-32.04,11.25-44.88,0l-32.62-28.57L79.28,64.99c10.02-10.47,24.12-16.99,39.76-16.99h417.93c15.64,0,29.75,6.52,39.76,16.99Z"/>
        <path class="cls-5" d="M576.72,404.19c-10.02,10.47-24.12,16.99-39.76,16.99H119.04c-15.64,0-29.74-6.52-39.75-17l193.65-169.6,32.62,28.57c12.85,11.25,32.04,11.25,44.88,0l32.62-28.57,193.66,169.61Z"/>
      </g>
    </g>
  </g>
</svg>