<?xml version="1.0" encoding="UTF-8"?>
<svg id="Layer_2" xmlns="http://www.w3.org/2000/svg" viewBox="0 0 528.72 598.61">
  <defs>
    <style>
      .cls-1 {
        fill: #ffa366;
      }

      .cls-2 {
        fill: #d9333b;
      }

      .cls-3 {
        fill: #efefef;
      }

      .cls-4 {
        fill: #dcdee2;
      }

      .cls-5 {
        fill: #ececec;
      }

      .cls-6 {
        fill: #808184;
      }

      .cls-7 {
        fill: #b5b5b5;
      }
    </style>
  </defs>
  <g id="Objects">
    <g>
      <g>
        <path class="cls-1" d="M98.17,0c70.36,12.58,126.07,44.14,164.1,67.7,118.06,73.32,206.02,145.68,206.02,145.68l-12.41,12.8c-11.53,11.47-22.17,21.62-33.69,33.09-17.29,17.21-35.47,35.74-52.76,52.95l-209.26,203.39,30.51,20.43,203.49-197.65c16.4-15.88,33.69-33.09,50.1-48.97,0,0,27.04-26.03,35.47-35.74l39.46-38.83s-172.41-127-247.59-163.93C196.41,13.98,161.47.17,97.29,1.32l.89-1.32Z"/>
        <path class="cls-1" d="M107.7,598.61c70.36-12.58,126.07-44.14,164.1-67.7,118.06-73.32,206.02-145.68,206.02-145.68l-12.41-12.8c-11.53-11.47-22.17-21.62-33.69-33.09-17.29-17.21-35.47-35.74-52.76-52.95L169.69,83.01l30.51-20.43,203.49,197.65c16.4,15.88,33.69,33.09,50.1,48.97,0,0,27.04,26.03,35.47,35.74l39.46,38.83s-172.41,127-247.59,163.93c-75.18,36.93-110.13,50.74-174.31,49.58l.89,1.32Z"/>
      </g>
      <g>
        <circle class="cls-4" cx="250" cy="290.28" r="250"/>
        <g>
          <circle class="cls-3" cx="250" cy="290.28" r="207.49"/>
          <path class="cls-5" d="M457.49,290.28c0,114.59-92.9,207.49-207.49,207.49V82.79c114.59,0,207.49,92.9,207.49,207.49Z"/>
          <path class="cls-7" d="M250,217.04v146.48l-36.97,26.37c-13.52,9.65-32.28-.02-32.28-16.62v-165.97c0-16.6,18.76-26.27,32.28-16.62l36.97,26.37Z"/>
          <path class="cls-2" d="M329.37,306.9l-79.37,56.61v-146.48l79.37,56.62c11.41,8.14,11.41,25.1,0,33.24Z"/>
          <path class="cls-6" d="M329.37,306.9l-79.37,56.61v-146.48l79.37,56.62c11.41,8.14,11.41,25.1,0,33.24Z"/>
        </g>
      </g>
    </g>
  </g>
</svg>