<?xml version="1.0" encoding="UTF-8"?>
<svg xmlns="http://www.w3.org/2000/svg" xmlns:xlink="http://www.w3.org/1999/xlink" viewBox="0 0 873.44 873.44">
  <defs>
    <style>
      .cls-1 {
        fill: #b1aeac;
      }

      .cls-2 {
        fill: #625d58;
      }

      .cls-3 {
        fill: #e1e0df;
      }

      .cls-4 {
        fill: #c9c8c6;
      }

      .cls-5 {
        fill: #8c8885;
      }

      .cls-6 {
        fill: #65615c;
      }

      .cls-7 {
        fill: #cac9c7;
      }

      .cls-8 {
        fill: #c7c6c4;
      }

      .cls-9 {
        fill: #e6e6e5;
      }

      .cls-10 {
        fill: #c2c0be;
      }

      .cls-11 {
        fill: #b7b5b3;
      }

      .cls-12 {
        fill: #d3d1d0;
      }

      .cls-13 {
        fill: #989592;
      }

      .cls-14 {
        fill: #716c68;
      }

      .cls-15 {
        fill: #969390;
      }

      .cls-16 {
        fill: #787470;
      }

      .cls-17 {
        fill: #94908d;
      }

      .cls-18 {
        fill: #b0adab;
      }

      .cls-19 {
        fill: #8a8783;
      }

      .cls-20 {
        fill: #e9e9e8;
      }

      .cls-21 {
        fill: #76726e;
      }

      .cls-22 {
        fill: #7d7975;
      }

      .cls-23 {
        fill: #7f7b77;
      }

      .cls-24 {
        fill: #e5e4e3;
      }

      .cls-25 {
        fill: #e3e2e1;
      }

      .cls-26 {
        fill: #a5a3a0;
      }

      .cls-27 {
        fill: #fcfcfc;
      }

      .cls-28 {
        fill: #999693;
      }

      .cls-29 {
        fill: #dedddc;
      }

      .cls-30 {
        fill: #e2e1e0;
      }

      .cls-31 {
        fill: #f3f2f2;
      }

      .cls-32 {
        fill: #d9d8d7;
      }

      .cls-33 {
        fill: #6e6965;
      }

      .cls-34 {
        fill: #94918e;
      }

      .cls-35 {
        fill: #86837f;
      }

      .cls-36 {
        fill: #fff;
      }

      .cls-37 {
        fill: #888581;
      }

      .cls-38 {
        fill: #ffa366;
      }

      .cls-39 {
        fill: #95928f;
      }

      .cls-40 {
        fill: #e7e7e6;
      }

      .cls-41 {
        fill: #a3a09d;
      }

      .cls-42 {
        fill: #5f5a55;
      }

      .cls-43 {
        fill: #a4a19e;
      }

      .cls-44 {
        fill: #5c5752;
      }

      .cls-45 {
        fill: #7e7a76;
      }

      .cls-46 {
        fill: #aba9a6;
      }

      .cls-47 {
        fill: #f7f6f6;
      }

      .cls-48 {
        fill: #5e5954;
      }

      .cls-49 {
        fill: #625e59;
      }

      .cls-50 {
        fill: #dddcdb;
      }

      .cls-51 {
        fill: #8d8986;
      }

      .cls-52 {
        fill: #b5b3b1;
      }

      .cls-53 {
        fill: #c0bebc;
      }

      .cls-54 {
        fill: #8f8b88;
      }

      .cls-55 {
        fill: #d0cecd;
      }

      .cls-56 {
        fill: #e6e5e4;
      }

      .cls-57 {
        fill: #d7d6d5;
      }

      .cls-58 {
        fill: #9c9996;
      }

      .cls-59 {
        fill: url(#radial-gradient);
      }

      .cls-60 {
        fill: #605b56;
      }

      .cls-61 {
        fill: #bbb9b7;
      }

      .cls-62 {
        fill: #ffc299;
      }

      .cls-63 {
        fill: #cccbc9;
      }

      .cls-64 {
        fill: #eaeae9;
      }

      .cls-65 {
        fill: #afacaa;
      }

      .cls-66 {
        fill: #918d8a;
      }

      .cls-67 {
        fill: #fbfbfb;
      }

      .cls-68 {
        fill: #f9f9f9;
      }

      .cls-69 {
        fill: #a6a4a1;
      }

      .cls-70 {
        fill: #d2d0cf;
      }

      .cls-71 {
        fill: #d8d7d6;
      }

      .cls-72 {
        fill: #736f6b;
      }

      .cls-73 {
        fill: #84817d;
      }

      .cls-74 {
        fill: #5a5550;
      }

      .cls-75 {
        fill: #615c57;
      }

      .cls-76 {
        fill: #77736f;
      }

      .cls-77 {
        fill: #9e9b98;
      }

      .cls-78 {
        fill: #adaaa8;
      }

      .cls-79 {
        fill: #a29f9c;
      }

      .cls-80 {
        isolation: isolate;
      }

      .cls-81 {
        fill: #f4f3f3;
      }

      .cls-82 {
        fill: #6f6a66;
      }

      .cls-83 {
        fill: #e8e8e7;
      }

      .cls-84 {
        fill: #dad9d8;
      }

      .cls-85 {
        fill: #797571;
      }

      .cls-86 {
        fill: #b2afad;
      }

      .cls-87 {
        fill: #85827e;
      }

      .cls-88 {
        fill: #635f5a;
      }

      .cls-89 {
        fill: #6b6662;
      }

      .cls-90 {
        fill: #807c78;
      }

      .cls-91 {
        fill: #83807c;
      }

      .cls-92 {
        fill: #7a7672;
      }

      .cls-93 {
        fill: #e4e3e2;
      }

      .cls-94 {
        fill: #5d5853;
      }

      .cls-95 {
        fill: #67635e;
      }

      .cls-96 {
        fill: #f5f4f4;
      }

      .cls-97 {
        fill: #dbdad9;
      }

      .cls-98 {
        fill: #efeeee;
      }

      .cls-99 {
        fill: #a19e9b;
      }

      .cls-100 {
        fill: #9d9a97;
      }

      .cls-101 {
        fill: url(#radial-gradient-2);
      }

      .cls-102 {
        fill: #d6d4d3;
      }

      .cls-103 {
        fill: #c5c3c1;
      }

      .cls-104 {
        fill: #706b67;
      }

      .cls-105 {
        fill: #6d6864;
      }

      .cls-106 {
        fill: #b1b0ae;
        fill-rule: evenodd;
      }

      .cls-107 {
        fill: #b9b7b5;
      }

      .cls-108 {
        fill: #b6b4b2;
      }

      .cls-109 {
        fill: #bcbab8;
      }

      .cls-110 {
        fill: #aaa8a5;
      }

      .cls-111 {
        fill: #eeeeed;
      }

      .cls-112 {
        fill: #c3c1bf;
      }

      .cls-113 {
        fill: #8b8884;
      }

      .cls-114 {
        fill: #979491;
      }

      .cls-115 {
        fill: #837f7b;
      }

      .cls-116 {
        fill: #938f8c;
      }

      .cls-117 {
        fill: #c1bfbd;
      }

      .cls-118 {
        fill: #f0efef;
      }

      .cls-119 {
        fill: #dfdedd;
      }

      .cls-120 {
        fill: #74706c;
      }

      .cls-121 {
        fill: #f2f1f1;
      }

      .cls-122 {
        fill: #bfbdbb;
      }

      .cls-123 {
        fill: #ededec;
      }

      .cls-124 {
        mix-blend-mode: multiply;
        opacity: .1;
      }

      .cls-125 {
        fill: #d5d3d2;
      }

      .cls-126 {
        fill: #5b5651;
      }

      .cls-127 {
        fill: #a7a5a2;
      }

      .cls-128 {
        fill: #827e7a;
      }

      .cls-129 {
        fill: #9a9794;
      }

      .cls-130 {
        fill: #c4c2c0;
      }

      .cls-131 {
        fill: #a8a6a3;
      }

      .cls-132 {
        fill: #b4b1af;
      }

      .cls-133 {
        fill: #f1f0f0;
      }

      .cls-134 {
        fill: #c5c4c2;
      }

      .cls-135 {
        fill: #d4d2d1;
      }

      .cls-136 {
        fill: #cdccca;
      }

      .cls-137 {
        fill: #7c7874;
      }

      .cls-138 {
        fill: #66625d;
      }

      .cls-139 {
        fill: #878480;
      }

      .cls-140 {
        fill: #b8b6b4;
      }

      .cls-141 {
        fill: #696560;
      }

      .cls-142 {
        fill: #aeaba9;
      }

      .cls-143 {
        fill: #d1cfce;
      }

      .cls-144 {
        fill: #b5b2b0;
      }

      .cls-145 {
        fill: #6c6763;
      }

      .cls-146 {
        fill: #68645f;
      }

      .cls-147 {
        fill: #726d69;
      }

      .cls-148 {
        fill: #6a6661;
      }

      .cls-149 {
        fill: #9b9895;
      }

      .cls-150 {
        fill: #bab8b6;
      }

      .cls-151 {
        fill: #817d79;
      }

      .cls-152 {
        fill: #fefefe;
      }

      .cls-153 {
        fill: #bebcba;
      }

      .cls-154 {
        fill: #cfcdcc;
      }

      .cls-155 {
        fill: #b3b0ae;
      }

      .cls-156 {
        fill: #fafafa;
      }

      .cls-157 {
        fill: #a09d9a;
      }

      .cls-158 {
        fill: #64605b;
      }

      .cls-159 {
        fill: #d6d5d4;
      }

      .cls-160 {
        fill: #f8f8f8;
      }

      .cls-161 {
        fill: #dcdbda;
      }

      .cls-162 {
        fill: #cecccb;
      }

      .cls-163 {
        fill: #908c89;
      }

      .cls-164 {
        fill: #928e8b;
      }

      .cls-165 {
        fill: #7b7773;
      }

      .cls-166 {
        fill: #a9a7a4;
      }

      .cls-167 {
        fill: #e0dfde;
      }

      .cls-168 {
        fill: #f6f5f5;
      }

      .cls-169 {
        fill: #f7f7f7;
      }

      .cls-170 {
        fill: #9f9c99;
      }

      .cls-171 {
        fill: #8e8a87;
      }

      .cls-172 {
        fill: #a4a29f;
      }

      .cls-173 {
        fill: #bdbbb9;
      }

      .cls-174 {
        fill: #fdfdfd;
      }

      .cls-175 {
        fill: #ececeb;
      }

      .cls-176 {
        fill: #898682;
      }

      .cls-177 {
        fill: #c6c5c3;
      }

      .cls-178 {
        fill: #75716d;
      }

      .cls-179 {
        fill: #736e6a;
      }

      .cls-180 {
        fill: #c8c7c5;
      }

      .cls-181 {
        fill: #acaaa7;
      }

      .cls-182 {
        fill: #cbcac8;
      }

      .cls-183 {
        fill: #ebebea;
      }
    </style>
    <radialGradient id="radial-gradient" cx="436.72" cy="436.72" fx="436.72" fy="436.72" r="436.72" gradientUnits="userSpaceOnUse">
      <stop offset="0" stop-color="#fff"/>
      <stop offset=".16" stop-color="#ffdac2"/>
      <stop offset=".32" stop-color="#ffb787"/>
      <stop offset=".49" stop-color="#ff9a57"/>
      <stop offset=".64" stop-color="#ff8331"/>
      <stop offset=".78" stop-color="#ff7316"/>
      <stop offset=".9" stop-color="#ff6905"/>
      <stop offset="1" stop-color="#f60"/>
    </radialGradient>
    <radialGradient id="radial-gradient-2" cx="293.79" cy="478.02" fx="293.79" fy="478.02" r="438.58" gradientUnits="userSpaceOnUse">
      <stop offset=".22" stop-color="#fafafa"/>
      <stop offset=".56" stop-color="#f6f6f6"/>
      <stop offset=".85" stop-color="#ececec"/>
      <stop offset="1" stop-color="#e3e3e3"/>
    </radialGradient>
  </defs>
  <g class="cls-80">
    <g id="Layer_2">
      <g id="Objects">
        <g>
          <path class="cls-59" d="M873.44,436.71c0,58.95-11.55,116.15-34.32,169.99-22,52-53.49,98.71-93.59,138.82-40.11,40.1-86.8,71.58-138.81,93.59-53.86,22.78-111.04,34.32-169.99,34.32s-116.15-11.55-169.99-34.32c-52-22-98.71-53.49-138.82-93.59-40.1-40.11-71.58-86.81-93.59-138.82C11.55,552.86,0,495.66,0,436.71s11.55-116.14,34.32-169.99c22-52,53.49-98.71,93.59-138.81,40.11-40.1,86.81-71.59,138.82-93.59C320.57,11.55,377.77,0,436.72,0s116.14,11.55,169.99,34.32c52,21.99,98.7,53.49,138.81,93.59,40.1,40.1,71.58,86.8,93.59,138.81,22.78,53.86,34.32,111.04,34.32,169.99Z"/>
          <path class="cls-38" d="M487.34,675.96c-68.15-4.2-128.66-23.82-170.56-38.73-130.16-46.44-232.5-94.41-232.5-94.41l7.48-10.59c7.07-9.52,13.73-17.98,20.8-27.5,10.6-14.28,21.62-29.63,32.22-43.91l129.79-169.17-34.08-13.12-126.26,164.41c-10.19,13.22-20.8,27.5-30.99,40.71,0,0-16.85,21.67-21.62,29.63l-24.33,32.26s196.12,82.85,276.05,105.05c79.93,22.2,116.07,30,174.42,24.3l-.41,1.07Z"/>
          <path class="cls-62" d="M149.69,611.03l27.62-54.76c5.43-9.37,18.52-36.93,18.52-36.93,9.1-17.83,17.89-34.41,26.67-50.98l108.13-203.55-33.29-8.37-105.09,197.61c-8.78,16.57-17.89,34.41-26.99,52.24,0,0-15.17,29.72-18.52,36.93l-42.16,81.96s254.97,81.55,377.85,64.15c-191.17-29.29-332.74-78.3-332.74-78.3Z"/>
          <g>
            <g class="cls-124">
              <path class="cls-36" d="M619.09,637.03c39.47-36.75,62.99-82.9,62.99-133.04,0-119.89-134.41-217.08-300.21-217.08S81.66,384.1,81.66,503.99s134.41,217.08,300.21,217.08c53.36,0,103.46-10.08,146.88-27.73l124.51,38.09-34.17-94.41Z"/>
              <path class="cls-152" d="M619.41,636.71c39.47-36.75,62.99-82.9,62.99-133.04,0-119.89-134.41-217.08-300.21-217.08S81.98,383.78,81.98,503.67s134.41,217.08,300.21,217.08c53.36,0,103.46-10.08,146.88-27.73l124.51,38.09-34.17-94.41Z"/>
              <path class="cls-174" d="M619.73,636.39c39.47-36.75,62.99-82.9,62.99-133.04,0-119.89-134.41-217.08-300.21-217.08S82.29,383.46,82.29,503.36s134.41,217.08,300.21,217.08c53.36,0,103.46-10.08,146.88-27.73l124.51,38.09-34.17-94.41Z"/>
              <path class="cls-27" d="M620.04,636.08c39.47-36.75,62.99-82.9,62.99-133.04,0-119.89-134.41-217.08-300.21-217.08S82.61,383.15,82.61,503.04s134.41,217.08,300.21,217.08c53.36,0,103.46-10.08,146.88-27.73l124.51,38.09-34.17-94.41Z"/>
              <path class="cls-67" d="M620.36,635.76c39.47-36.75,62.99-82.9,62.99-133.04,0-119.89-134.41-217.08-300.21-217.08S82.93,382.83,82.93,502.72s134.41,217.08,300.21,217.08c53.36,0,103.46-10.08,146.88-27.73l124.51,38.09-34.17-94.41Z"/>
              <path class="cls-156" d="M620.68,635.44c39.47-36.75,62.99-82.9,62.99-133.04,0-119.89-134.41-217.08-300.21-217.08S83.24,382.51,83.24,502.4s134.41,217.08,300.21,217.08c53.36,0,103.46-10.08,146.88-27.73l124.51,38.09-34.17-94.41Z"/>
              <path class="cls-68" d="M620.99,635.13c39.47-36.75,62.99-82.91,62.99-133.04,0-119.89-134.41-217.08-300.21-217.08S83.56,382.2,83.56,502.09s134.41,217.08,300.21,217.08c53.36,0,103.46-10.08,146.88-27.73l124.51,38.09-34.17-94.41Z"/>
              <path class="cls-160" d="M621.31,634.81c39.47-36.75,62.99-82.91,62.99-133.04,0-119.89-134.41-217.08-300.21-217.08S83.88,381.88,83.88,501.77s134.41,217.08,300.21,217.08c53.36,0,103.46-10.08,146.88-27.73l124.51,38.09-34.17-94.41Z"/>
              <path class="cls-169" d="M621.63,634.49c39.47-36.75,62.99-82.91,62.99-133.04,0-119.89-134.41-217.08-300.21-217.08S84.2,381.56,84.2,501.45s134.41,217.08,300.21,217.08c53.36,0,103.46-10.08,146.88-27.73l124.51,38.09-34.17-94.41Z"/>
              <path class="cls-47" d="M621.94,634.18c39.47-36.75,62.99-82.91,62.99-133.04,0-119.89-134.41-217.08-300.21-217.08S84.51,381.25,84.51,501.14s134.41,217.08,300.21,217.08c53.36,0,103.46-10.08,146.88-27.73l124.51,38.09-34.17-94.41Z"/>
              <path class="cls-168" d="M622.26,633.86c39.47-36.75,62.99-82.91,62.99-133.04,0-119.89-134.41-217.08-300.21-217.08S84.83,380.93,84.83,500.82s134.41,217.08,300.21,217.08c53.36,0,103.46-10.08,146.88-27.73l124.51,38.09-34.17-94.41Z"/>
              <path class="cls-96" d="M622.58,633.54c39.47-36.75,62.99-82.91,62.99-133.04,0-119.89-134.41-217.08-300.21-217.08S85.15,380.61,85.15,500.5s134.41,217.08,300.21,217.08c53.36,0,103.46-10.08,146.88-27.73l124.51,38.09-34.17-94.41Z"/>
              <path class="cls-81" d="M622.9,633.23c39.47-36.75,62.99-82.91,62.99-133.04,0-119.89-134.41-217.08-300.21-217.08S85.46,380.29,85.46,500.19s134.41,217.08,300.21,217.08c53.36,0,103.46-10.08,146.88-27.73l124.51,38.09-34.17-94.41Z"/>
              <path class="cls-31" d="M623.21,632.91c39.47-36.75,62.99-82.91,62.99-133.04,0-119.89-134.41-217.08-300.21-217.08S85.78,379.98,85.78,499.87s134.41,217.08,300.21,217.08c53.36,0,103.46-10.08,146.88-27.73l124.51,38.09-34.17-94.41Z"/>
              <path class="cls-121" d="M623.53,632.59c39.47-36.75,62.99-82.91,62.99-133.04,0-119.89-134.41-217.08-300.21-217.08S86.1,379.66,86.1,499.55s134.41,217.08,300.21,217.08c53.36,0,103.46-10.08,146.88-27.73l124.51,38.09-34.17-94.41Z"/>
              <path class="cls-133" d="M623.85,632.27c39.47-36.75,62.99-82.91,62.99-133.04,0-119.89-134.41-217.08-300.21-217.08S86.41,379.34,86.41,499.23s134.41,217.08,300.21,217.08c53.36,0,103.46-10.08,146.88-27.73l124.51,38.09-34.17-94.41Z"/>
              <path class="cls-118" d="M624.16,631.96c39.47-36.75,62.99-82.91,62.99-133.04,0-119.89-134.41-217.08-300.21-217.08S86.73,379.03,86.73,498.92s134.41,217.08,300.21,217.08c53.36,0,103.46-10.08,146.88-27.73l124.51,38.09-34.17-94.41Z"/>
              <path class="cls-98" d="M624.48,631.64c39.47-36.75,62.99-82.91,62.99-133.04,0-119.89-134.41-217.08-300.21-217.08S87.05,378.71,87.05,498.6s134.41,217.08,300.21,217.08c53.36,0,103.46-10.08,146.88-27.73l124.51,38.09-34.17-94.41Z"/>
              <path class="cls-111" d="M624.8,631.32c39.47-36.75,62.99-82.91,62.99-133.04,0-119.89-134.41-217.08-300.21-217.08S87.37,378.39,87.37,498.28s134.41,217.08,300.21,217.08c53.36,0,103.46-10.08,146.88-27.73l124.51,38.09-34.17-94.41Z"/>
              <path class="cls-123" d="M625.11,631.01c39.47-36.75,62.99-82.91,62.99-133.04,0-119.89-134.41-217.08-300.21-217.08S87.68,378.08,87.68,497.97s134.41,217.08,300.21,217.08c53.36,0,103.46-10.08,146.88-27.73l124.51,38.09-34.17-94.41Z"/>
              <path class="cls-175" d="M625.43,630.69c39.47-36.75,62.99-82.91,62.99-133.04,0-119.89-134.41-217.08-300.21-217.08S88,377.76,88,497.65s134.41,217.08,300.21,217.08c53.36,0,103.46-10.08,146.88-27.73l124.51,38.09-34.17-94.41Z"/>
              <path class="cls-183" d="M625.75,630.37c39.47-36.75,62.99-82.91,62.99-133.04,0-119.89-134.41-217.08-300.21-217.08S88.32,377.44,88.32,497.33s134.41,217.08,300.21,217.08c53.36,0,103.46-10.08,146.88-27.73l124.51,38.09-34.17-94.41Z"/>
              <path class="cls-64" d="M626.07,630.06c39.47-36.75,62.99-82.91,62.99-133.04,0-119.89-134.41-217.08-300.21-217.08S88.63,377.12,88.63,497.02s134.41,217.08,300.21,217.08c53.36,0,103.46-10.08,146.88-27.73l124.51,38.09-34.17-94.41Z"/>
              <path class="cls-20" d="M626.38,629.74c39.47-36.75,62.99-82.91,62.99-133.04,0-119.89-134.41-217.08-300.21-217.08S88.95,376.81,88.95,496.7s134.41,217.08,300.21,217.08c53.36,0,103.46-10.08,146.88-27.73l124.51,38.09-34.17-94.41Z"/>
              <path class="cls-83" d="M626.7,629.42c39.47-36.75,62.99-82.91,62.99-133.04,0-119.89-134.41-217.08-300.21-217.08S89.27,376.49,89.27,496.38s134.41,217.08,300.21,217.08c53.36,0,103.46-10.08,146.88-27.73l124.51,38.1-34.17-94.41Z"/>
              <path class="cls-40" d="M627.02,629.1c39.47-36.75,62.99-82.91,62.99-133.04,0-119.89-134.41-217.08-300.21-217.08S89.58,376.17,89.58,496.06s134.41,217.08,300.21,217.08c53.36,0,103.46-10.08,146.88-27.73l124.51,38.1-34.17-94.41Z"/>
              <path class="cls-9" d="M627.33,628.79c39.47-36.75,62.99-82.91,62.99-133.04,0-119.89-134.41-217.08-300.21-217.08S89.9,375.86,89.9,495.75s134.41,217.08,300.21,217.08c53.36,0,103.46-10.08,146.88-27.73l124.51,38.1-34.17-94.41Z"/>
              <path class="cls-56" d="M627.65,628.47c39.47-36.75,62.99-82.91,62.99-133.04,0-119.89-134.41-217.08-300.21-217.08S90.22,375.54,90.22,495.43s134.41,217.08,300.21,217.08c53.36,0,103.46-10.08,146.88-27.73l124.51,38.1-34.17-94.41Z"/>
              <path class="cls-24" d="M627.97,628.15c39.47-36.75,62.99-82.91,62.99-133.04,0-119.89-134.41-217.08-300.21-217.08S90.54,375.22,90.54,495.11s134.41,217.08,300.21,217.08c53.36,0,103.46-10.08,146.88-27.73l124.51,38.1-34.17-94.41Z"/>
              <path class="cls-93" d="M628.28,627.84c39.47-36.75,62.99-82.91,62.99-133.04,0-119.89-134.41-217.08-300.21-217.08S90.85,374.91,90.85,494.8s134.41,217.08,300.21,217.08c53.36,0,103.46-10.08,146.88-27.73l124.51,38.1-34.17-94.41Z"/>
              <path class="cls-25" d="M628.6,627.52c39.47-36.75,62.99-82.91,62.99-133.04,0-119.89-134.41-217.08-300.21-217.08S91.17,374.59,91.17,494.48s134.41,217.08,300.21,217.08c53.36,0,103.46-10.08,146.88-27.73l124.51,38.1-34.17-94.41Z"/>
              <path class="cls-30" d="M628.92,627.2c39.47-36.75,62.99-82.91,62.99-133.04,0-119.89-134.41-217.08-300.21-217.08S91.49,374.27,91.49,494.16s134.41,217.08,300.21,217.08c53.36,0,103.46-10.08,146.88-27.73l124.51,38.1-34.17-94.41Z"/>
              <path class="cls-3" d="M629.24,626.89c39.47-36.75,62.99-82.91,62.99-133.04,0-119.89-134.41-217.08-300.21-217.08S91.8,373.95,91.8,493.85s134.41,217.08,300.21,217.08c53.36,0,103.46-10.08,146.88-27.73l124.51,38.1-34.17-94.41Z"/>
              <path class="cls-167" d="M629.55,626.57c39.47-36.75,62.99-82.91,62.99-133.04,0-119.89-134.41-217.08-300.21-217.08S92.12,373.64,92.12,493.53s134.41,217.08,300.21,217.08c53.36,0,103.46-10.08,146.88-27.73l124.51,38.1-34.17-94.41Z"/>
              <path class="cls-119" d="M629.87,626.25c39.47-36.75,62.99-82.91,62.99-133.04,0-119.89-134.41-217.08-300.21-217.08S92.44,373.32,92.44,493.21s134.41,217.08,300.21,217.08c53.36,0,103.46-10.08,146.88-27.73l124.51,38.1-34.17-94.41Z"/>
              <path class="cls-29" d="M630.19,625.94c39.47-36.75,62.99-82.91,62.99-133.04,0-119.89-134.41-217.08-300.21-217.08S92.75,373,92.75,492.89s134.41,217.08,300.21,217.08c53.36,0,103.46-10.08,146.88-27.73l124.51,38.1-34.17-94.41Z"/>
              <path class="cls-50" d="M630.5,625.62c39.47-36.75,62.99-82.91,62.99-133.04,0-119.89-134.41-217.08-300.21-217.08S93.07,372.69,93.07,492.58s134.41,217.08,300.21,217.08c53.36,0,103.46-10.08,146.88-27.73l124.51,38.1-34.17-94.41Z"/>
              <path class="cls-161" d="M630.82,625.3c39.47-36.75,62.99-82.91,62.99-133.04,0-119.89-134.41-217.08-300.21-217.08S93.39,372.37,93.39,492.26s134.41,217.08,300.21,217.08c53.36,0,103.46-10.08,146.88-27.73l124.51,38.1-34.17-94.41Z"/>
              <path class="cls-97" d="M631.14,624.98c39.47-36.75,62.99-82.91,62.99-133.04,0-119.89-134.41-217.08-300.21-217.08S93.71,372.05,93.71,491.94s134.41,217.08,300.21,217.08c53.36,0,103.46-10.08,146.88-27.73l124.51,38.1-34.17-94.41Z"/>
              <path class="cls-84" d="M631.45,624.67c39.47-36.75,62.99-82.91,62.99-133.04,0-119.89-134.41-217.08-300.21-217.08S94.02,371.74,94.02,491.63s134.41,217.08,300.21,217.08c53.36,0,103.46-10.08,146.88-27.73l124.51,38.1-34.17-94.41Z"/>
              <path class="cls-32" d="M631.77,624.35c39.47-36.75,62.99-82.91,62.99-133.04,0-119.89-134.41-217.08-300.21-217.08S94.34,371.42,94.34,491.31s134.41,217.08,300.21,217.08c53.36,0,103.46-10.08,146.88-27.73l124.51,38.1-34.17-94.41Z"/>
              <path class="cls-71" d="M632.09,624.03c39.47-36.75,62.99-82.91,62.99-133.04,0-119.89-134.41-217.08-300.21-217.08S94.66,371.1,94.66,490.99s134.41,217.08,300.21,217.08c53.36,0,103.46-10.08,146.88-27.73l124.51,38.1-34.17-94.41Z"/>
              <path class="cls-57" d="M632.41,623.72c39.47-36.75,62.99-82.91,62.99-133.04,0-119.89-134.41-217.08-300.21-217.08S94.97,370.79,94.97,490.68s134.41,217.08,300.21,217.08c53.36,0,103.46-10.08,146.88-27.73l124.51,38.1-34.17-94.41Z"/>
              <path class="cls-159" d="M632.72,623.4c39.47-36.75,62.99-82.91,62.99-133.04,0-119.89-134.41-217.08-300.21-217.08S95.29,370.47,95.29,490.36s134.41,217.08,300.21,217.08c53.36,0,103.46-10.08,146.88-27.73l124.51,38.1-34.17-94.41Z"/>
              <path class="cls-102" d="M633.04,623.08c39.47-36.75,62.99-82.91,62.99-133.04,0-119.89-134.41-217.08-300.21-217.08S95.61,370.15,95.61,490.04s134.41,217.08,300.21,217.08c53.36,0,103.46-10.08,146.88-27.73l124.51,38.1-34.17-94.41Z"/>
              <path class="cls-125" d="M633.36,622.77c39.47-36.75,62.99-82.91,62.99-133.04,0-119.89-134.41-217.08-300.21-217.08S95.92,369.83,95.92,489.72s134.41,217.08,300.21,217.08c53.36,0,103.46-10.08,146.88-27.73l124.51,38.1-34.17-94.41Z"/>
              <path class="cls-135" d="M633.67,622.45c39.47-36.75,62.99-82.91,62.99-133.04,0-119.89-134.41-217.08-300.21-217.08S96.24,369.52,96.24,489.41s134.41,217.08,300.21,217.08c53.36,0,103.46-10.08,146.88-27.73l124.51,38.1-34.17-94.41Z"/>
              <path class="cls-12" d="M633.99,622.13c39.47-36.75,62.99-82.91,62.99-133.04,0-119.89-134.41-217.08-300.21-217.08S96.56,369.2,96.56,489.09s134.41,217.08,300.21,217.08c53.36,0,103.46-10.08,146.88-27.73l124.51,38.1-34.17-94.41Z"/>
              <path class="cls-70" d="M634.31,621.81c39.47-36.75,62.99-82.91,62.99-133.04,0-119.89-134.41-217.08-300.21-217.08S96.87,368.88,96.87,488.77s134.41,217.08,300.21,217.08c53.36,0,103.46-10.08,146.88-27.73l124.51,38.1-34.17-94.41Z"/>
              <path class="cls-143" d="M634.62,621.5c39.47-36.75,62.99-82.91,62.99-133.04,0-119.89-134.41-217.08-300.21-217.08S97.19,368.57,97.19,488.46s134.41,217.08,300.21,217.08c53.36,0,103.46-10.08,146.88-27.73l124.51,38.1-34.17-94.41Z"/>
              <path class="cls-55" d="M634.94,621.18c39.47-36.75,62.99-82.91,62.99-133.04,0-119.89-134.41-217.08-300.21-217.08S97.51,368.25,97.51,488.14s134.41,217.08,300.21,217.08c53.36,0,103.46-10.08,146.88-27.73l124.51,38.1-34.17-94.41Z"/>
              <path class="cls-154" d="M635.26,620.86c39.47-36.75,62.99-82.91,62.99-133.04,0-119.89-134.41-217.08-300.21-217.08S97.83,367.93,97.83,487.82s134.41,217.08,300.21,217.08c53.36,0,103.46-10.08,146.88-27.73l124.51,38.1-34.17-94.41Z"/>
              <path class="cls-162" d="M635.57,620.55c39.47-36.75,62.99-82.91,62.99-133.04,0-119.89-134.41-217.08-300.21-217.08S98.14,367.62,98.14,487.51s134.41,217.08,300.21,217.08c53.36,0,103.46-10.08,146.88-27.73l124.51,38.1-34.17-94.41Z"/>
              <path class="cls-136" d="M635.89,620.23c39.47-36.75,62.99-82.91,62.99-133.04,0-119.89-134.41-217.08-300.21-217.08S98.46,367.3,98.46,487.19s134.41,217.08,300.21,217.08c53.36,0,103.46-10.08,146.88-27.73l124.51,38.1-34.17-94.41Z"/>
              <path class="cls-63" d="M636.21,619.91c39.47-36.75,62.99-82.91,62.99-133.04,0-119.89-134.41-217.08-300.21-217.08S98.78,366.98,98.78,486.87s134.41,217.08,300.21,217.08c53.36,0,103.46-10.08,146.88-27.73l124.51,38.1-34.17-94.41Z"/>
              <path class="cls-182" d="M636.53,619.6c39.47-36.75,62.99-82.91,62.99-133.04,0-119.89-134.41-217.08-300.21-217.08S99.09,366.66,99.09,486.55s134.41,217.08,300.21,217.08c53.36,0,103.46-10.08,146.88-27.73l124.51,38.1-34.17-94.41Z"/>
              <path class="cls-7" d="M636.84,619.28c39.47-36.75,62.99-82.91,62.99-133.04,0-119.89-134.41-217.08-300.21-217.08S99.41,366.35,99.41,486.24s134.41,217.08,300.21,217.08c53.36,0,103.46-10.08,146.88-27.73l124.51,38.1-34.17-94.41Z"/>
              <path class="cls-4" d="M637.16,618.96c39.47-36.75,62.99-82.91,62.99-133.04,0-119.89-134.41-217.08-300.21-217.08S99.73,366.03,99.73,485.92s134.41,217.08,300.21,217.08c53.36,0,103.46-10.08,146.88-27.73l124.51,38.1-34.17-94.41Z"/>
              <path class="cls-180" d="M637.48,618.65c39.47-36.75,62.99-82.91,62.99-133.04,0-119.89-134.41-217.08-300.21-217.08S100.04,365.71,100.04,485.6s134.41,217.08,300.21,217.08c53.36,0,103.46-10.08,146.88-27.73l124.51,38.1-34.17-94.41Z"/>
              <path class="cls-8" d="M637.79,618.33c39.47-36.75,62.99-82.91,62.99-133.04,0-119.89-134.41-217.08-300.21-217.08S100.36,365.4,100.36,485.29s134.41,217.08,300.21,217.08c53.36,0,103.46-10.08,146.88-27.73l124.51,38.1-34.17-94.41Z"/>
              <path class="cls-177" d="M638.11,618.01c39.47-36.75,62.99-82.91,62.99-133.04,0-119.89-134.41-217.08-300.21-217.08S100.68,365.08,100.68,484.97s134.41,217.08,300.21,217.08c53.36,0,103.46-10.08,146.88-27.73l124.51,38.1-34.17-94.41Z"/>
              <path class="cls-134" d="M638.43,617.69c39.47-36.75,62.99-82.91,62.99-133.04,0-119.89-134.41-217.08-300.21-217.08S101,364.76,101,484.65s134.41,217.08,300.21,217.08c53.36,0,103.46-10.08,146.88-27.73l124.51,38.1-34.17-94.41Z"/>
              <path class="cls-103" d="M638.74,617.38c39.47-36.75,62.99-82.91,62.99-133.04,0-119.89-134.41-217.08-300.21-217.08S101.31,364.45,101.31,484.34s134.41,217.08,300.21,217.08c53.36,0,103.46-10.08,146.88-27.73l124.51,38.1-34.17-94.41Z"/>
              <path class="cls-130" d="M639.06,617.06c39.47-36.75,62.99-82.91,62.99-133.04,0-119.89-134.41-217.08-300.21-217.08S101.63,364.13,101.63,484.02s134.41,217.08,300.21,217.08c53.36,0,103.46-10.08,146.88-27.73l124.51,38.1-34.17-94.41Z"/>
              <path class="cls-112" d="M639.38,616.74c39.47-36.75,62.99-82.91,62.99-133.04,0-119.89-134.41-217.08-300.21-217.08S101.95,363.81,101.95,483.7s134.41,217.08,300.21,217.08c53.36,0,103.46-10.08,146.88-27.73l124.51,38.1-34.17-94.41Z"/>
              <path class="cls-10" d="M639.7,616.43c39.47-36.75,62.99-82.91,62.99-133.04,0-119.89-134.41-217.08-300.21-217.08S102.26,363.49,102.26,483.38s134.41,217.08,300.21,217.08c53.36,0,103.46-10.08,146.88-27.73l124.51,38.1-34.17-94.41Z"/>
              <path class="cls-117" d="M640.01,616.11c39.47-36.75,62.99-82.91,62.99-133.04,0-119.89-134.41-217.08-300.21-217.08S102.58,363.18,102.58,483.07s134.41,217.08,300.21,217.08c53.36,0,103.46-10.08,146.88-27.73l124.51,38.1-34.17-94.41Z"/>
              <path class="cls-53" d="M640.33,615.79c39.47-36.75,62.99-82.91,62.99-133.04,0-119.89-134.41-217.08-300.21-217.08S102.9,362.86,102.9,482.75s134.41,217.08,300.21,217.08c53.36,0,103.46-10.08,146.88-27.73l124.51,38.1-34.17-94.41Z"/>
              <path class="cls-122" d="M640.65,615.48c39.47-36.75,62.99-82.91,62.99-133.04,0-119.89-134.41-217.08-300.21-217.08S103.21,362.54,103.21,482.43s134.41,217.08,300.21,217.08c53.36,0,103.46-10.08,146.88-27.73l124.51,38.1-34.17-94.41Z"/>
              <path class="cls-153" d="M640.96,615.16c39.47-36.75,62.99-82.91,62.99-133.04,0-119.89-134.41-217.08-300.21-217.08S103.53,362.23,103.53,482.12s134.41,217.08,300.21,217.08c53.36,0,103.46-10.08,146.88-27.73l124.51,38.1-34.17-94.41Z"/>
              <path class="cls-173" d="M641.28,614.84c39.47-36.75,62.99-82.91,62.99-133.04,0-119.89-134.41-217.08-300.21-217.08S103.85,361.91,103.85,481.8s134.41,217.08,300.21,217.08c53.36,0,103.46-10.08,146.88-27.73l124.51,38.1-34.17-94.41Z"/>
              <path class="cls-109" d="M641.6,614.52c39.47-36.75,62.99-82.91,62.99-133.04,0-119.89-134.41-217.08-300.21-217.08S104.17,361.59,104.17,481.48s134.41,217.08,300.21,217.08c53.36,0,103.46-10.08,146.88-27.73l124.51,38.1-34.17-94.41Z"/>
              <path class="cls-61" d="M641.91,614.21c39.47-36.75,62.99-82.91,62.99-133.04,0-119.89-134.41-217.08-300.21-217.08S104.48,361.28,104.48,481.17s134.41,217.08,300.21,217.08c53.36,0,103.46-10.08,146.88-27.73l124.51,38.1-34.17-94.41Z"/>
              <path class="cls-150" d="M642.23,613.89c39.47-36.75,62.99-82.91,62.99-133.04,0-119.89-134.41-217.08-300.21-217.08S104.8,360.96,104.8,480.85s134.41,217.08,300.21,217.08c53.36,0,103.46-10.08,146.88-27.73l124.51,38.1-34.17-94.41Z"/>
              <path class="cls-107" d="M642.55,613.57c39.47-36.75,62.99-82.91,62.99-133.04,0-119.89-134.41-217.08-300.21-217.08S105.12,360.64,105.12,480.53s134.41,217.08,300.21,217.08c53.36,0,103.46-10.08,146.88-27.73l124.51,38.1-34.17-94.41Z"/>
              <path class="cls-140" d="M642.87,613.26c39.47-36.75,62.99-82.91,62.99-133.04,0-119.89-134.41-217.08-300.21-217.08S105.43,360.32,105.43,480.21s134.41,217.08,300.21,217.08c53.36,0,103.46-10.08,146.88-27.73l124.51,38.1-34.17-94.41Z"/>
              <path class="cls-11" d="M643.18,612.94c39.47-36.75,62.99-82.91,62.99-133.04,0-119.89-134.41-217.08-300.21-217.08S105.75,360.01,105.75,479.9s134.41,217.08,300.21,217.08c53.36,0,103.46-10.08,146.88-27.73l124.51,38.1-34.17-94.41Z"/>
              <path class="cls-108" d="M643.5,612.62c39.47-36.75,62.99-82.91,62.99-133.04,0-119.89-134.41-217.08-300.21-217.08S106.07,359.69,106.07,479.58s134.41,217.08,300.21,217.08c53.36,0,103.46-10.08,146.88-27.73l124.51,38.1-34.17-94.41Z"/>
              <path class="cls-52" d="M643.82,612.31c39.47-36.75,62.99-82.91,62.99-133.04,0-119.89-134.41-217.08-300.21-217.08S106.38,359.37,106.38,479.26s134.41,217.08,300.21,217.08c53.36,0,103.46-10.08,146.88-27.73l124.51,38.1-34.17-94.41Z"/>
              <path class="cls-144" d="M644.13,611.99c39.47-36.75,62.99-82.91,62.99-133.04,0-119.89-134.41-217.08-300.21-217.08S106.7,359.06,106.7,478.95s134.41,217.08,300.21,217.08c53.36,0,103.46-10.08,146.88-27.73l124.51,38.1-34.17-94.41Z"/>
              <path class="cls-132" d="M644.45,611.67c39.47-36.75,62.99-82.91,62.99-133.04,0-119.89-134.41-217.08-300.21-217.08S107.02,358.74,107.02,478.63s134.41,217.08,300.21,217.08c53.36,0,103.46-10.08,146.88-27.73l124.51,38.1-34.17-94.41Z"/>
              <path class="cls-155" d="M644.77,611.36c39.47-36.75,62.99-82.91,62.99-133.04,0-119.89-134.41-217.08-300.21-217.08S107.34,358.42,107.34,478.31s134.41,217.08,300.21,217.08c53.36,0,103.46-10.08,146.88-27.73l124.51,38.1-34.17-94.41Z"/>
              <path class="cls-86" d="M645.08,611.04c39.47-36.75,62.99-82.91,62.99-133.04,0-119.89-134.41-217.08-300.21-217.08S107.65,358.11,107.65,478s134.41,217.08,300.21,217.08c53.36,0,103.46-10.08,146.88-27.73l124.51,38.1-34.17-94.41Z"/>
              <path class="cls-1" d="M645.4,610.72c39.47-36.75,62.99-82.91,62.99-133.04,0-119.89-134.41-217.08-300.21-217.08S107.97,357.79,107.97,477.68s134.41,217.08,300.21,217.08c53.36,0,103.46-10.08,146.88-27.73l124.51,38.1-34.17-94.41Z"/>
              <path class="cls-18" d="M645.72,610.4c39.47-36.75,62.99-82.91,62.99-133.04,0-119.89-134.41-217.08-300.21-217.08S108.29,357.47,108.29,477.36s134.41,217.08,300.21,217.08c53.36,0,103.46-10.08,146.88-27.73l124.51,38.1-34.17-94.41Z"/>
              <path class="cls-65" d="M646.04,610.09c39.47-36.75,62.99-82.91,62.99-133.04,0-119.89-134.41-217.08-300.21-217.08S108.6,357.15,108.6,477.04s134.41,217.08,300.21,217.08c53.36,0,103.46-10.08,146.88-27.73l124.51,38.1-34.17-94.41Z"/>
              <path class="cls-142" d="M646.35,609.77c39.47-36.75,62.99-82.91,62.99-133.04,0-119.89-134.41-217.08-300.21-217.08S108.92,356.84,108.92,476.73s134.41,217.08,300.21,217.08c53.36,0,103.46-10.08,146.88-27.73l124.51,38.1-34.17-94.41Z"/>
              <path class="cls-78" d="M646.67,609.45c39.47-36.75,62.99-82.91,62.99-133.04,0-119.89-134.41-217.08-300.21-217.08S109.24,356.52,109.24,476.41s134.41,217.08,300.21,217.08c53.36,0,103.46-10.08,146.88-27.73l124.51,38.1-34.17-94.41Z"/>
              <path class="cls-181" d="M646.99,609.14c39.47-36.75,62.99-82.91,62.99-133.04,0-119.89-134.41-217.08-300.21-217.08S109.55,356.2,109.55,476.09s134.41,217.08,300.21,217.08c53.36,0,103.46-10.08,146.88-27.73l124.51,38.1-34.17-94.41Z"/>
              <path class="cls-46" d="M647.3,608.82c39.47-36.75,62.99-82.91,62.99-133.04,0-119.89-134.41-217.08-300.21-217.08S109.87,355.89,109.87,475.78s134.41,217.08,300.21,217.08c53.36,0,103.46-10.08,146.88-27.73l124.51,38.1-34.17-94.41Z"/>
              <path class="cls-110" d="M647.62,608.5c39.47-36.75,62.99-82.91,62.99-133.04,0-119.89-134.41-217.08-300.21-217.08S110.19,355.57,110.19,475.46s134.41,217.08,300.21,217.08c53.36,0,103.46-10.08,146.88-27.73l124.51,38.1-34.17-94.41Z"/>
              <path class="cls-166" d="M647.94,608.19c39.47-36.75,62.99-82.91,62.99-133.04,0-119.89-134.41-217.08-300.21-217.08S110.51,355.25,110.51,475.14s134.41,217.08,300.21,217.08c53.36,0,103.46-10.08,146.88-27.73l124.51,38.1-34.17-94.41Z"/>
              <path class="cls-131" d="M648.25,607.87c39.47-36.75,62.99-82.91,62.99-133.04,0-119.89-134.41-217.08-300.21-217.08S110.82,354.94,110.82,474.83s134.41,217.08,300.21,217.08c53.36,0,103.46-10.08,146.88-27.73l124.51,38.1-34.17-94.41Z"/>
              <path class="cls-127" d="M648.57,607.55c39.47-36.75,62.99-82.91,62.99-133.04,0-119.89-134.41-217.08-300.21-217.08S111.14,354.62,111.14,474.51s134.41,217.08,300.21,217.08c53.36,0,103.46-10.08,146.88-27.73l124.51,38.1-34.17-94.41Z"/>
              <path class="cls-69" d="M648.89,607.23c39.47-36.75,62.99-82.91,62.99-133.04,0-119.89-134.41-217.08-300.21-217.08S111.46,354.3,111.46,474.19s134.41,217.08,300.21,217.08c53.36,0,103.46-10.08,146.88-27.73l124.51,38.1-34.17-94.41Z"/>
              <path class="cls-26" d="M649.21,606.92c39.47-36.75,62.99-82.91,62.99-133.04,0-119.89-134.41-217.08-300.21-217.08S111.77,353.98,111.77,473.87s134.41,217.08,300.21,217.08c53.36,0,103.46-10.08,146.88-27.73l124.51,38.1-34.17-94.41Z"/>
              <path class="cls-172" d="M649.52,606.6c39.47-36.75,62.99-82.91,62.99-133.04,0-119.89-134.41-217.08-300.21-217.08S112.09,353.67,112.09,473.56s134.41,217.08,300.21,217.08c53.36,0,103.46-10.08,146.88-27.73l124.51,38.1-34.17-94.41Z"/>
              <path class="cls-43" d="M649.84,606.28c39.47-36.75,62.99-82.91,62.99-133.04,0-119.89-134.41-217.08-300.21-217.08S112.41,353.35,112.41,473.24s134.41,217.08,300.21,217.08c53.36,0,103.46-10.08,146.88-27.73l124.51,38.1-34.17-94.41Z"/>
              <path class="cls-41" d="M650.16,605.97c39.47-36.75,62.99-82.91,62.99-133.04,0-119.89-134.41-217.08-300.21-217.08S112.72,353.03,112.72,472.92s134.41,217.08,300.21,217.08c53.36,0,103.46-10.08,146.88-27.73l124.51,38.1-34.17-94.41Z"/>
              <path class="cls-79" d="M650.47,605.65c39.47-36.75,62.99-82.91,62.99-133.04,0-119.89-134.41-217.08-300.21-217.08S113.04,352.72,113.04,472.61s134.41,217.08,300.21,217.08c53.36,0,103.46-10.08,146.88-27.73l124.51,38.1-34.17-94.41Z"/>
              <path class="cls-99" d="M650.79,605.33c39.47-36.75,62.99-82.91,62.99-133.04,0-119.89-134.41-217.08-300.21-217.08S113.36,352.4,113.36,472.29s134.41,217.08,300.21,217.08c53.36,0,103.46-10.08,146.88-27.73l124.51,38.1-34.17-94.41Z"/>
              <path class="cls-157" d="M651.11,605.02c39.47-36.75,62.99-82.91,62.99-133.04,0-119.89-134.41-217.08-300.21-217.08S113.68,352.08,113.68,471.97s134.41,217.08,300.21,217.08c53.36,0,103.46-10.08,146.88-27.73l124.51,38.1-34.17-94.41Z"/>
              <path class="cls-170" d="M651.42,604.7c39.47-36.75,62.99-82.91,62.99-133.04,0-119.89-134.41-217.08-300.21-217.08S113.99,351.77,113.99,471.66s134.41,217.08,300.21,217.08c53.36,0,103.46-10.08,146.88-27.73l124.51,38.1-34.17-94.41Z"/>
              <path class="cls-77" d="M651.74,604.38c39.47-36.75,62.99-82.91,62.99-133.04,0-119.89-134.41-217.08-300.21-217.08S114.31,351.45,114.31,471.34s134.41,217.08,300.21,217.08c53.36,0,103.46-10.08,146.88-27.73l124.51,38.1-34.17-94.41Z"/>
              <path class="cls-100" d="M652.06,604.06c39.47-36.75,62.99-82.91,62.99-133.04,0-119.89-134.41-217.08-300.21-217.08S114.63,351.13,114.63,471.02s134.41,217.08,300.21,217.08c53.36,0,103.46-10.08,146.88-27.73l124.51,38.1-34.17-94.41Z"/>
              <path class="cls-58" d="M652.38,603.75c39.47-36.75,62.99-82.91,62.99-133.04,0-119.89-134.41-217.08-300.21-217.08S114.94,350.81,114.94,470.7s134.41,217.08,300.21,217.08c53.36,0,103.46-10.08,146.88-27.73l124.51,38.1-34.17-94.41Z"/>
              <path class="cls-149" d="M652.69,603.43c39.47-36.75,62.99-82.91,62.99-133.04,0-119.89-134.41-217.08-300.21-217.08S115.26,350.5,115.26,470.39s134.41,217.08,300.21,217.08c53.36,0,103.46-10.08,146.88-27.73l124.51,38.1-34.17-94.41Z"/>
              <path class="cls-129" d="M653.01,603.11c39.47-36.75,62.99-82.91,62.99-133.04,0-119.89-134.41-217.08-300.21-217.08S115.58,350.18,115.58,470.07s134.41,217.08,300.21,217.08c53.36,0,103.46-10.08,146.88-27.73l124.51,38.1-34.17-94.41Z"/>
              <path class="cls-28" d="M653.33,602.8c39.47-36.75,62.99-82.91,62.99-133.04,0-119.89-134.41-217.08-300.21-217.08S115.89,349.86,115.89,469.75s134.41,217.08,300.21,217.08c53.36,0,103.46-10.08,146.88-27.73l124.51,38.1-34.17-94.41Z"/>
              <path class="cls-13" d="M653.64,602.48c39.47-36.75,62.99-82.91,62.99-133.04,0-119.89-134.41-217.08-300.21-217.08S116.21,349.55,116.21,469.44s134.41,217.08,300.21,217.08c53.36,0,103.46-10.08,146.88-27.73l124.51,38.1-34.17-94.41Z"/>
              <path class="cls-114" d="M653.96,602.16c39.47-36.75,62.99-82.91,62.99-133.04,0-119.89-134.41-217.08-300.21-217.08S116.53,349.23,116.53,469.12s134.41,217.08,300.21,217.08c53.36,0,103.46-10.08,146.88-27.73l124.51,38.1-34.17-94.41Z"/>
              <path class="cls-15" d="M654.28,601.85c39.47-36.75,62.99-82.91,62.99-133.04,0-119.89-134.41-217.08-300.21-217.08S116.84,348.91,116.84,468.8s134.41,217.08,300.21,217.08c53.36,0,103.46-10.08,146.88-27.73l124.51,38.1-34.17-94.41Z"/>
              <path class="cls-39" d="M654.59,601.53c39.47-36.75,62.99-82.91,62.99-133.04,0-119.89-134.41-217.08-300.21-217.08S117.16,348.6,117.16,468.49s134.41,217.08,300.21,217.08c53.36,0,103.46-10.08,146.88-27.73l124.51,38.1-34.17-94.41Z"/>
              <path class="cls-34" d="M654.91,601.21c39.47-36.75,62.99-82.91,62.99-133.04,0-119.89-134.41-217.08-300.21-217.08S117.48,348.28,117.48,468.17s134.41,217.08,300.21,217.08c53.36,0,103.46-10.08,146.88-27.73l124.51,38.1-34.17-94.41Z"/>
              <path class="cls-17" d="M655.23,600.9c39.47-36.75,62.99-82.91,62.99-133.04,0-119.89-134.41-217.08-300.21-217.08S117.8,347.96,117.8,467.85s134.41,217.08,300.21,217.08c53.36,0,103.46-10.08,146.88-27.73l124.51,38.1-34.17-94.41Z"/>
              <path class="cls-116" d="M655.55,600.58c39.47-36.75,62.99-82.91,62.99-133.04,0-119.89-134.41-217.08-300.21-217.08S118.11,347.64,118.11,467.53s134.41,217.08,300.21,217.08c53.36,0,103.46-10.08,146.88-27.73l124.51,38.1-34.17-94.41Z"/>
              <path class="cls-164" d="M655.86,600.26c39.47-36.75,62.99-82.91,62.99-133.04,0-119.89-134.41-217.08-300.21-217.08S118.43,347.33,118.43,467.22s134.41,217.08,300.21,217.08c53.36,0,103.46-10.08,146.88-27.73l124.51,38.1-34.17-94.41Z"/>
              <path class="cls-66" d="M656.18,599.94c39.47-36.75,62.99-82.91,62.99-133.04,0-119.89-134.41-217.08-300.21-217.08S118.75,347.01,118.75,466.9s134.41,217.08,300.21,217.08c53.36,0,103.46-10.08,146.88-27.73l124.51,38.1-34.17-94.41Z"/>
              <path class="cls-163" d="M656.5,599.63c39.47-36.75,62.99-82.91,62.99-133.04,0-119.89-134.41-217.08-300.21-217.08S119.06,346.69,119.06,466.58s134.41,217.08,300.21,217.08c53.36,0,103.46-10.08,146.88-27.73l124.51,38.1-34.17-94.41Z"/>
              <path class="cls-54" d="M656.81,599.31c39.47-36.75,62.99-82.91,62.99-133.04,0-119.89-134.41-217.08-300.21-217.08S119.38,346.38,119.38,466.27s134.41,217.08,300.21,217.08c53.36,0,103.46-10.08,146.88-27.73l124.51,38.1-34.17-94.41Z"/>
              <path class="cls-171" d="M657.13,598.99c39.47-36.75,62.99-82.91,62.99-133.04,0-119.89-134.41-217.08-300.21-217.08S119.7,346.06,119.7,465.95s134.41,217.08,300.21,217.08c53.36,0,103.46-10.08,146.88-27.73l124.51,38.1-34.17-94.41Z"/>
              <path class="cls-51" d="M657.45,598.68c39.47-36.75,62.99-82.91,62.99-133.04,0-119.89-134.41-217.08-300.21-217.08S120.01,345.74,120.01,465.63s134.41,217.08,300.21,217.08c53.36,0,103.46-10.08,146.88-27.73l124.51,38.1-34.17-94.41Z"/>
              <path class="cls-5" d="M657.76,598.36c39.47-36.75,62.99-82.91,62.99-133.04,0-119.89-134.41-217.08-300.21-217.08S120.33,345.43,120.33,465.32s134.41,217.08,300.21,217.08c53.36,0,103.46-10.08,146.88-27.73l124.51,38.1-34.17-94.41Z"/>
              <path class="cls-113" d="M658.08,598.04c39.47-36.75,62.99-82.91,62.99-133.04,0-119.89-134.41-217.08-300.21-217.08S120.65,345.11,120.65,465s134.41,217.08,300.21,217.08c53.36,0,103.46-10.08,146.88-27.73l124.51,38.1-34.17-94.41Z"/>
              <path class="cls-19" d="M658.4,597.73c39.47-36.75,62.99-82.91,62.99-133.04,0-119.89-134.41-217.08-300.21-217.08S120.97,344.79,120.97,464.68s134.41,217.08,300.21,217.08c53.36,0,103.46-10.08,146.88-27.73l124.51,38.1-34.17-94.41Z"/>
              <path class="cls-176" d="M658.71,597.41c39.47-36.75,62.99-82.91,62.99-133.04,0-119.89-134.41-217.08-300.21-217.08S121.28,344.48,121.28,464.36s134.41,217.08,300.21,217.08c53.36,0,103.46-10.08,146.88-27.73l124.51,38.1-34.17-94.41Z"/>
              <path class="cls-37" d="M659.03,597.09c39.47-36.75,62.99-82.91,62.99-133.04,0-119.89-134.41-217.08-300.21-217.08S121.6,344.16,121.6,464.05s134.41,217.08,300.21,217.08c53.36,0,103.46-10.08,146.88-27.73l124.51,38.1-34.17-94.41Z"/>
              <path class="cls-139" d="M659.35,596.77c39.47-36.75,62.99-82.91,62.99-133.04,0-119.89-134.41-217.08-300.21-217.08S121.92,343.84,121.92,463.73s134.41,217.08,300.21,217.08c53.36,0,103.46-10.08,146.88-27.73l124.51,38.1-34.17-94.41Z"/>
              <path class="cls-35" d="M659.67,596.46c39.47-36.75,62.99-82.91,62.99-133.04,0-119.89-134.41-217.08-300.21-217.08S122.23,343.52,122.23,463.41s134.41,217.08,300.21,217.08c53.36,0,103.46-10.08,146.88-27.73l124.51,38.1-34.17-94.41Z"/>
              <path class="cls-87" d="M659.98,596.14c39.47-36.75,62.99-82.91,62.99-133.04,0-119.89-134.41-217.08-300.21-217.08S122.55,343.21,122.55,463.1s134.41,217.08,300.21,217.08c53.36,0,103.46-10.08,146.88-27.73l124.51,38.1-34.17-94.41Z"/>
              <path class="cls-73" d="M660.3,595.82c39.47-36.75,62.99-82.91,62.99-133.04,0-119.89-134.41-217.08-300.21-217.08S122.87,342.89,122.87,462.78s134.41,217.08,300.21,217.08c53.36,0,103.46-10.08,146.88-27.73l124.51,38.1-34.17-94.41Z"/>
              <path class="cls-91" d="M660.62,595.51c39.47-36.75,62.99-82.91,62.99-133.04,0-119.89-134.41-217.08-300.21-217.08S123.18,342.57,123.18,462.46s134.41,217.08,300.21,217.08c53.36,0,103.46-10.08,146.88-27.73l124.51,38.1-34.17-94.41Z"/>
              <path class="cls-115" d="M660.93,595.19c39.47-36.75,62.99-82.91,62.99-133.04,0-119.89-134.41-217.08-300.21-217.08S123.5,342.26,123.5,462.15s134.41,217.08,300.21,217.08c53.36,0,103.46-10.08,146.88-27.73l124.51,38.1-34.17-94.41Z"/>
              <path class="cls-128" d="M661.25,594.87c39.47-36.75,62.99-82.91,62.99-133.04,0-119.89-134.41-217.08-300.21-217.08S123.82,341.94,123.82,461.83s134.41,217.08,300.21,217.08c53.36,0,103.46-10.08,146.88-27.73l124.51,38.1-34.17-94.41Z"/>
              <path class="cls-151" d="M661.57,594.56c39.47-36.75,62.99-82.91,62.99-133.04,0-119.89-134.41-217.08-300.21-217.08S124.14,341.62,124.14,461.51s134.41,217.08,300.21,217.08c53.36,0,103.46-10.08,146.88-27.73l124.51,38.1-34.17-94.41Z"/>
              <path class="cls-90" d="M661.88,594.24c39.47-36.75,62.99-82.91,62.99-133.04,0-119.89-134.41-217.08-300.21-217.08S124.45,341.31,124.45,461.19s134.41,217.08,300.21,217.08c53.36,0,103.46-10.08,146.88-27.73l124.51,38.1-34.17-94.41Z"/>
              <path class="cls-23" d="M662.2,593.92c39.47-36.75,62.99-82.91,62.99-133.04,0-119.89-134.41-217.08-300.21-217.08S124.77,340.99,124.77,460.88s134.41,217.08,300.21,217.08c53.36,0,103.46-10.08,146.88-27.73l124.51,38.1-34.17-94.41Z"/>
              <path class="cls-45" d="M662.52,593.61c39.47-36.75,62.99-82.91,62.99-133.04,0-119.89-134.41-217.08-300.21-217.08S125.09,340.67,125.09,460.56s134.41,217.08,300.21,217.08c53.36,0,103.46-10.08,146.88-27.73l124.51,38.1-34.17-94.41Z"/>
              <path class="cls-22" d="M662.84,593.29c39.47-36.75,62.99-82.91,62.99-133.04,0-119.89-134.41-217.08-300.21-217.08S125.4,340.35,125.4,460.24s134.41,217.08,300.21,217.08c53.36,0,103.46-10.08,146.88-27.73l124.51,38.1-34.17-94.41Z"/>
              <path class="cls-137" d="M663.15,592.97c39.47-36.75,62.99-82.91,62.99-133.04,0-119.89-134.41-217.08-300.21-217.08S125.72,340.04,125.72,459.93s134.41,217.08,300.21,217.08c53.36,0,103.46-10.08,146.88-27.73l124.51,38.1-34.17-94.41Z"/>
              <path class="cls-165" d="M663.47,592.65c39.47-36.75,62.99-82.91,62.99-133.04,0-119.89-134.41-217.08-300.21-217.08S126.04,339.72,126.04,459.61s134.41,217.08,300.21,217.08c53.36,0,103.46-10.08,146.88-27.73l124.51,38.1-34.17-94.41Z"/>
              <path class="cls-92" d="M663.79,592.34c39.47-36.75,62.99-82.91,62.99-133.05,0-119.89-134.41-217.08-300.21-217.08S126.35,339.4,126.35,459.29s134.41,217.08,300.21,217.08c53.36,0,103.46-10.08,146.88-27.73l124.51,38.1-34.17-94.41Z"/>
              <path class="cls-85" d="M664.1,592.02c39.47-36.75,62.99-82.91,62.99-133.05,0-119.89-134.41-217.08-300.21-217.08S126.67,339.09,126.67,458.98s134.41,217.08,300.21,217.08c53.36,0,103.46-10.08,146.88-27.73l124.51,38.1-34.17-94.41Z"/>
              <path class="cls-16" d="M664.42,591.7c39.47-36.75,62.99-82.91,62.99-133.05,0-119.89-134.41-217.08-300.21-217.08S126.99,338.77,126.99,458.66s134.41,217.08,300.21,217.08c53.36,0,103.46-10.08,146.88-27.73l124.51,38.1-34.17-94.41Z"/>
              <path class="cls-76" d="M664.74,591.39c39.47-36.75,62.99-82.91,62.99-133.05,0-119.89-134.41-217.08-300.21-217.08S127.31,338.45,127.31,458.34s134.41,217.08,300.21,217.08c53.36,0,103.46-10.08,146.88-27.73l124.51,38.1-34.17-94.41Z"/>
              <path class="cls-21" d="M665.05,591.07c39.47-36.75,62.99-82.91,62.99-133.05,0-119.89-134.41-217.08-300.21-217.08S127.62,338.14,127.62,458.02s134.41,217.08,300.21,217.08c53.36,0,103.46-10.08,146.88-27.73l124.51,38.1-34.17-94.41Z"/>
              <path class="cls-178" d="M665.37,590.75c39.47-36.75,62.99-82.91,62.99-133.05,0-119.89-134.41-217.08-300.21-217.08S127.94,337.82,127.94,457.71s134.41,217.08,300.21,217.08c53.36,0,103.46-10.08,146.88-27.73l124.51,38.1-34.17-94.41Z"/>
              <path class="cls-120" d="M665.69,590.44c39.47-36.75,62.99-82.91,62.99-133.05,0-119.89-134.41-217.08-300.21-217.08s-300.21,97.19-300.21,217.08,134.41,217.08,300.21,217.08c53.36,0,103.46-10.08,146.88-27.73l124.51,38.1-34.17-94.41Z"/>
              <path class="cls-72" d="M666.01,590.12c39.47-36.75,62.99-82.91,62.99-133.05,0-119.89-134.41-217.08-300.21-217.08s-300.21,97.19-300.21,217.08,134.41,217.08,300.21,217.08c53.36,0,103.46-10.08,146.88-27.73l124.51,38.1-34.17-94.41Z"/>
              <path class="cls-179" d="M666.32,589.8c39.47-36.75,62.99-82.91,62.99-133.05,0-119.89-134.41-217.08-300.21-217.08s-300.21,97.19-300.21,217.08,134.41,217.08,300.21,217.08c53.36,0,103.46-10.08,146.88-27.73l124.51,38.1-34.17-94.41Z"/>
              <path class="cls-147" d="M666.64,589.48c39.47-36.75,62.99-82.91,62.99-133.05,0-119.89-134.41-217.08-300.21-217.08s-300.21,97.19-300.21,217.08,134.41,217.08,300.21,217.08c53.36,0,103.46-10.08,146.88-27.73l124.51,38.1-34.17-94.41Z"/>
              <path class="cls-14" d="M666.96,589.17c39.47-36.75,62.99-82.91,62.99-133.05,0-119.89-134.41-217.08-300.21-217.08s-300.21,97.19-300.21,217.08,134.41,217.08,300.21,217.08c53.36,0,103.46-10.08,146.88-27.73l124.51,38.1-34.17-94.41Z"/>
              <path class="cls-104" d="M667.27,588.85c39.47-36.75,62.99-82.91,62.99-133.05,0-119.89-134.41-217.08-300.21-217.08s-300.21,97.19-300.21,217.08,134.41,217.08,300.21,217.08c53.36,0,103.46-10.08,146.88-27.73l124.51,38.1-34.17-94.41Z"/>
              <path class="cls-82" d="M667.59,588.53c39.47-36.75,62.99-82.91,62.99-133.05,0-119.89-134.41-217.08-300.21-217.08s-300.21,97.19-300.21,217.08,134.41,217.08,300.21,217.08c53.36,0,103.46-10.08,146.88-27.73l124.51,38.1-34.17-94.41Z"/>
              <path class="cls-33" d="M667.91,588.22c39.47-36.75,62.99-82.91,62.99-133.05,0-119.89-134.41-217.08-300.21-217.08s-300.21,97.19-300.21,217.08,134.41,217.08,300.21,217.08c53.36,0,103.46-10.08,146.88-27.73l124.51,38.1-34.17-94.41Z"/>
              <path class="cls-105" d="M668.22,587.9c39.47-36.75,62.99-82.91,62.99-133.05,0-119.89-134.41-217.08-300.21-217.08s-300.21,97.19-300.21,217.08,134.41,217.08,300.21,217.08c53.36,0,103.46-10.08,146.88-27.73l124.51,38.1-34.17-94.41Z"/>
              <path class="cls-145" d="M668.54,587.58c39.47-36.75,62.99-82.91,62.99-133.05,0-119.89-134.41-217.08-300.21-217.08s-300.21,97.19-300.21,217.08,134.41,217.08,300.21,217.08c53.36,0,103.46-10.08,146.88-27.73l124.51,38.1-34.17-94.41Z"/>
              <path class="cls-89" d="M668.86,587.27c39.47-36.75,62.99-82.91,62.99-133.05,0-119.89-134.41-217.08-300.21-217.08s-300.21,97.19-300.21,217.08,134.41,217.08,300.21,217.08c53.36,0,103.46-10.08,146.88-27.73l124.51,38.1-34.17-94.41Z"/>
              <path class="cls-148" d="M669.18,586.95c39.47-36.75,62.99-82.91,62.99-133.05,0-119.89-134.41-217.08-300.21-217.08s-300.21,97.19-300.21,217.08,134.41,217.08,300.21,217.08c53.36,0,103.46-10.08,146.88-27.73l124.51,38.1-34.17-94.41Z"/>
              <path class="cls-141" d="M669.49,586.63c39.47-36.75,62.99-82.91,62.99-133.05,0-119.89-134.41-217.08-300.21-217.08s-300.21,97.19-300.21,217.08,134.41,217.08,300.21,217.08c53.36,0,103.46-10.08,146.88-27.73l124.51,38.1-34.17-94.41Z"/>
              <path class="cls-146" d="M669.81,586.32c39.47-36.75,62.99-82.91,62.99-133.05,0-119.89-134.41-217.08-300.21-217.08s-300.21,97.19-300.21,217.08,134.41,217.08,300.21,217.08c53.36,0,103.46-10.08,146.88-27.73l124.51,38.1-34.17-94.41Z"/>
              <path class="cls-95" d="M670.13,586c39.47-36.75,62.99-82.91,62.99-133.05,0-119.89-134.41-217.08-300.21-217.08s-300.21,97.19-300.21,217.08,134.41,217.08,300.21,217.08c53.36,0,103.46-10.08,146.88-27.73l124.51,38.1-34.17-94.41Z"/>
              <path class="cls-138" d="M670.44,585.68c39.47-36.75,62.99-82.91,62.99-133.05,0-119.89-134.41-217.08-300.21-217.08s-300.21,97.19-300.21,217.08,134.41,217.08,300.21,217.08c53.36,0,103.46-10.08,146.88-27.73l124.51,38.1-34.17-94.41Z"/>
              <path class="cls-6" d="M670.76,585.36c39.47-36.75,62.99-82.91,62.99-133.05,0-119.89-134.41-217.08-300.21-217.08s-300.21,97.19-300.21,217.08,134.41,217.08,300.21,217.08c53.36,0,103.46-10.08,146.88-27.73l124.51,38.1-34.17-94.41Z"/>
              <path class="cls-158" d="M671.08,585.05c39.47-36.75,62.99-82.91,62.99-133.05,0-119.89-134.41-217.08-300.21-217.08s-300.21,97.19-300.21,217.08,134.41,217.08,300.21,217.08c53.36,0,103.46-10.08,146.88-27.73l124.51,38.1-34.17-94.41Z"/>
              <path class="cls-88" d="M671.39,584.73c39.47-36.75,62.99-82.91,62.99-133.05,0-119.89-134.41-217.08-300.21-217.08s-300.21,97.19-300.21,217.08,134.41,217.08,300.21,217.08c53.36,0,103.46-10.08,146.88-27.73l124.51,38.1-34.17-94.41Z"/>
              <path class="cls-49" d="M671.71,584.41c39.47-36.75,62.99-82.91,62.99-133.05,0-119.89-134.41-217.08-300.21-217.08s-300.21,97.19-300.21,217.08,134.41,217.08,300.21,217.08c53.36,0,103.46-10.08,146.88-27.73l124.51,38.1-34.17-94.41Z"/>
              <path class="cls-2" d="M672.03,584.1c39.47-36.75,62.99-82.91,62.99-133.05,0-119.89-134.41-217.08-300.21-217.08s-300.21,97.19-300.21,217.08,134.41,217.08,300.21,217.08c53.36,0,103.46-10.08,146.88-27.73l124.51,38.1-34.17-94.41Z"/>
              <path class="cls-75" d="M672.35,583.78c39.47-36.75,62.99-82.91,62.99-133.05,0-119.89-134.41-217.08-300.21-217.08s-300.21,97.19-300.21,217.08,134.41,217.08,300.21,217.08c53.36,0,103.46-10.08,146.88-27.73l124.51,38.1-34.17-94.41Z"/>
              <path class="cls-60" d="M672.66,583.46c39.47-36.75,62.99-82.91,62.99-133.05,0-119.89-134.41-217.08-300.21-217.08s-300.21,97.19-300.21,217.08,134.41,217.08,300.21,217.08c53.36,0,103.46-10.08,146.88-27.73l124.51,38.1-34.17-94.41Z"/>
              <path class="cls-42" d="M672.98,583.15c39.47-36.75,62.99-82.91,62.99-133.05,0-119.89-134.41-217.08-300.21-217.08s-300.21,97.19-300.21,217.08,134.41,217.08,300.21,217.08c53.36,0,103.46-10.08,146.88-27.73l124.51,38.1-34.17-94.41Z"/>
              <path class="cls-48" d="M673.3,582.83c39.47-36.75,62.99-82.91,62.99-133.05,0-119.89-134.41-217.08-300.21-217.08s-300.21,97.19-300.21,217.08,134.41,217.08,300.21,217.08c53.36,0,103.46-10.08,146.88-27.73l124.51,38.1-34.17-94.41Z"/>
              <path class="cls-94" d="M673.61,582.51c39.47-36.75,62.99-82.91,62.99-133.05,0-119.89-134.41-217.08-300.21-217.08s-300.21,97.19-300.21,217.08,134.41,217.08,300.21,217.08c53.36,0,103.46-10.08,146.88-27.73l124.51,38.1-34.17-94.41Z"/>
              <path class="cls-44" d="M673.93,582.19c39.47-36.75,62.99-82.91,62.99-133.05,0-119.89-134.41-217.08-300.21-217.08s-300.21,97.19-300.21,217.08,134.41,217.08,300.21,217.08c53.36,0,103.46-10.08,146.88-27.73l124.51,38.1-34.17-94.41Z"/>
              <path class="cls-126" d="M674.25,581.88c39.47-36.75,62.99-82.91,62.99-133.05,0-119.89-134.41-217.08-300.21-217.08s-300.21,97.19-300.21,217.08,134.41,217.08,300.21,217.08c53.36,0,103.46-10.08,146.88-27.73l124.51,38.1-34.17-94.41Z"/>
              <path class="cls-74" d="M674.56,581.56c39.47-36.75,62.99-82.91,62.99-133.05,0-119.89-134.41-217.08-300.21-217.08s-300.21,97.19-300.21,217.08,134.41,217.08,300.21,217.08c53.36,0,103.46-10.08,146.88-27.73l124.51,38.1-34.17-94.41Z"/>
            </g>
            <path class="cls-36" d="M680.45,581.56c39.47-36.75,62.99-82.91,62.99-133.05,0-119.89-134.41-217.08-300.21-217.08s-300.21,97.19-300.21,217.08,134.41,217.08,300.21,217.08c53.36,0,103.45-10.08,146.88-27.73l124.5,38.1-34.17-94.41Z"/>
            <path class="cls-101" d="M674.56,581.56c39.47-36.75,62.99-82.91,62.99-133.05,0-119.89-134.41-217.08-300.21-217.08s-300.21,97.19-300.21,217.08,134.41,217.08,300.21,217.08c53.36,0,103.46-10.08,146.88-27.73l124.51,38.1-34.17-94.41Z"/>
            <g>
              <path class="cls-106" d="M351.8,453.7c0,13.13-10.65,23.78-23.78,23.78s-23.78-10.65-23.78-23.78,10.64-23.78,23.78-23.78,23.78,10.65,23.78,23.78Z"/>
              <path class="cls-106" d="M458.27,453.7c0,13.13-10.64,23.78-23.78,23.78s-23.78-10.65-23.78-23.78,10.65-23.78,23.78-23.78,23.78,10.65,23.78,23.78Z"/>
              <path class="cls-106" d="M564.74,453.7c0,13.13-10.64,23.78-23.78,23.78s-23.78-10.65-23.78-23.78,10.64-23.78,23.78-23.78,23.78,10.65,23.78,23.78Z"/>
            </g>
          </g>
        </g>
      </g>
    </g>
  </g>
</svg>