<?xml version="1.0" encoding="UTF-8"?>
<svg id="Layer_2" xmlns="http://www.w3.org/2000/svg" xmlns:xlink="http://www.w3.org/1999/xlink" viewBox="0 0 873.44 873.44">
  <defs>
    <style>
      .cls-1 {
        fill: #ffa366;
      }

      .cls-2 {
        fill: url(#radial-gradient);
      }

      .cls-3 {
        fill: #ffc299;
      }

      .cls-4 {
        fill: #efefef;
      }
    </style>
    <radialGradient id="radial-gradient" cx="436.72" cy="436.72" fx="436.72" fy="436.72" r="436.72" gradientUnits="userSpaceOnUse">
      <stop offset="0" stop-color="#fff"/>
      <stop offset=".02" stop-color="#fff3ec"/>
      <stop offset=".09" stop-color="#ffd6bb"/>
      <stop offset=".17" stop-color="#ffbb8e"/>
      <stop offset=".25" stop-color="#ffa468"/>
      <stop offset=".33" stop-color="#ff9147"/>
      <stop offset=".43" stop-color="#ff812d"/>
      <stop offset=".53" stop-color="#ff7519"/>
      <stop offset=".64" stop-color="#ff6c0a"/>
      <stop offset=".77" stop-color="#ff6702"/>
      <stop offset="1" stop-color="#f60"/>
    </radialGradient>
  </defs>
  <g id="Objects">
    <path class="cls-2" d="M873.44,436.71c0,58.95-11.55,116.15-34.32,169.99-22,52-53.49,98.71-93.59,138.82-40.11,40.1-86.8,71.58-138.81,93.59-53.86,22.78-111.04,34.32-169.99,34.32s-116.15-11.55-169.99-34.32c-52-22-98.71-53.49-138.82-93.59-40.1-40.11-71.58-86.81-93.59-138.82C11.55,552.86,0,495.66,0,436.71s11.55-116.14,34.32-169.99c22-52,53.49-98.71,93.59-138.81,40.11-40.1,86.81-71.59,138.82-93.59C320.57,11.55,377.77,0,436.72,0s116.14,11.55,169.99,34.32c52,21.99,98.7,53.49,138.81,93.59,40.1,40.1,71.58,86.8,93.59,138.81,22.78,53.86,34.32,111.04,34.32,169.99Z"/>
    <path class="cls-1" d="M615.55,589.77c-39.82,17.48-78.67,20.4-105.87,21.37-84.5,2.91-153.46-3.89-153.46-3.89l1.94-10.68c1.94-9.71,3.89-18.45,5.83-28.17,2.91-14.57,5.83-30.11,8.74-44.68l36.91-173.86h-22.34l-35.94,169c-2.91,13.6-5.83,28.17-8.74,41.76,0,0-4.86,22.34-5.83,30.11l-6.8,33.02s130.15,5.83,180.66-.97c50.51-6.8,72.84-11.66,104.9-33.99v.97Z"/>
    <path class="cls-3" d="M316.4,633.48l8.74-44.68c1.94-7.77,5.83-30.11,5.83-30.11,2.91-14.57,5.83-28.17,8.74-41.76l35.94-167.06h-22.34l-34.97,162.2c-2.91,13.6-5.83,28.17-8.74,42.74,0,0-4.86,24.28-5.83,30.11l-13.6,67.02s173.86,12.63,248.64-22.34c-125.29,13.6-222.42,3.89-222.42,3.89Z"/>
    <path class="cls-4" d="M732.1,418.83c-18.45,104.9-98.1,176.77-205.91,180.66-48.56,1.94-150.55,0-156.37-1.94,4.86-24.28,39.82-189.4,52.45-247.67h98.1c-8.74,43.71-18.45,86.44-28.17,130.15-1.94,9.71-3.89,20.4-4.86,30.11,79.64,15.54,139.86-29.14,147.63-107.81,1.94-20.4,0-37.88-6.8-52.45-7.77-16.51-20.4-28.17-36.91-35.94-12.63-4.86-27.2-7.77-43.71-7.77H136.72c4.86-14.57,8.74-30.11,8.74-46.62,0-13.6-1.94-27.2-5.83-39.82h319.55c1.94,0,5.83-.97,8.74,0,37.88,1.94,75.76,0,113.64,1.94,2.91,0,6.8,0,9.71.97,74.79,9.71,128.21,60.22,141.8,128.21,4.86,21.37,4.86,44.68,0,68.96l-.97-.97Z"/>
  </g>
</svg>