<?xml version="1.0" encoding="UTF-8"?>
<svg id="Layer_2" xmlns="http://www.w3.org/2000/svg" xmlns:xlink="http://www.w3.org/1999/xlink" viewBox="0 0 873.44 873.44">
  <defs>
    <style>
      .cls-1 {
        fill: #fff;
      }

      .cls-2 {
        fill: #ffa366;
      }

      .cls-3 {
        fill: url(#radial-gradient);
      }

      .cls-4 {
        fill: #ffc299;
      }

      .cls-5 {
        fill: #efefef;
      }

      .cls-6 {
        fill: #dcdee2;
      }
    </style>
    <radialGradient id="radial-gradient" cx="436.72" cy="436.72" fx="436.72" fy="436.72" r="436.72" gradientUnits="userSpaceOnUse">
      <stop offset="0" stop-color="#fff"/>
      <stop offset=".07" stop-color="#fff0e6"/>
      <stop offset=".34" stop-color="#ffbf95"/>
      <stop offset=".57" stop-color="#f95"/>
      <stop offset=".76" stop-color="#ff7d27"/>
      <stop offset=".91" stop-color="#ff6c0a"/>
      <stop offset="1" stop-color="#f60"/>
    </radialGradient>
  </defs>
  <g id="Objects">
    <g>
      <path class="cls-3" d="M873.44,436.71c0,58.95-11.55,116.15-34.32,169.99-22,52-53.49,98.71-93.59,138.82-40.11,40.1-86.8,71.58-138.81,93.59-53.86,22.78-111.04,34.32-169.99,34.32s-116.15-11.55-169.99-34.32c-52-22-98.71-53.49-138.82-93.59-40.1-40.11-71.58-86.81-93.59-138.82C11.55,552.86,0,495.66,0,436.71s11.55-116.14,34.32-169.99c22-52,53.49-98.71,93.59-138.81,40.11-40.1,86.81-71.59,138.82-93.59C320.57,11.55,377.77,0,436.72,0s116.14,11.55,169.99,34.32c52,21.99,98.7,53.49,138.81,93.59,40.1,40.1,71.58,86.8,93.59,138.81,22.78,53.86,34.32,111.04,34.32,169.99Z"/>
      <path class="cls-4" d="M149.02,641.62l13.43-59.85c2.99-10.41,8.96-40.33,8.96-40.33,4.48-19.52,8.96-37.73,13.43-55.94l55.22-223.78h-34.33l-53.73,217.27c-4.48,18.21-8.96,37.73-13.43,57.24,0,0-7.46,32.53-8.96,40.33l-20.9,89.77s267.16,16.91,382.09-29.92c-192.54,18.21-341.79,5.2-341.79,5.2Z"/>
      <path class="cls-2" d="M321.78,244.91c66.18-23.04,129.83-24.57,174.31-24.05,138.21,1.75,250.4,16.78,250.4,16.78l-3.87,15.69c-3.81,14.25-7.55,27.06-11.35,41.31-5.71,21.37-11.48,44.19-17.19,65.56l-71.61,254.92,36.49,1.6,69.71-247.79c5.65-19.94,11.35-41.31,17-61.25,0,0,9.39-32.75,11.48-44.19l13.26-48.44s-212.2-17.98-295.14-11.54c-82.94,6.45-119.74,12.04-173.55,42.83l.06-1.44Z"/>
      <g>
        <path class="cls-5" d="M685.44,267.12c-10.01-10.47-24.12-16.99-39.76-16.99H227.75c-15.64,0-29.74,6.52-39.76,16.99-9.46,9.88-15.26,23.28-15.26,38.03v263.14c0,14.75,5.8,28.14,15.27,38.03,10.01,10.48,24.11,17,39.75,17h417.93c15.64,0,29.74-6.52,39.76-16.99,9.46-9.88,15.26-23.28,15.26-38.03v-263.14c0-14.75-5.79-28.14-15.26-38.03Z"/>
        <path class="cls-1" d="M685.44,267.12l-193.66,169.6-32.62,28.57c-12.85,11.25-32.04,11.25-44.88,0l-32.62-28.57-193.66-169.6c10.02-10.47,24.12-16.99,39.76-16.99h417.93c15.64,0,29.75,6.52,39.76,16.99Z"/>
        <path class="cls-6" d="M685.44,606.32c-10.02,10.47-24.12,16.99-39.76,16.99H227.75c-15.64,0-29.74-6.52-39.75-17l193.65-169.6,32.62,28.57c12.85,11.25,32.04,11.25,44.88,0l32.62-28.57,193.66,169.61Z"/>
      </g>
    </g>
  </g>
</svg>