<?xml version="1.0" encoding="UTF-8"?>
<svg id="Layer_2" xmlns="http://www.w3.org/2000/svg" xmlns:xlink="http://www.w3.org/1999/xlink" viewBox="0 0 873.44 873.44">
  <defs>
    <style>
      .cls-1 {
        fill: #ffa366;
      }

      .cls-2 {
        fill: #d9333b;
      }

      .cls-3 {
        fill: url(#radial-gradient);
      }

      .cls-4 {
        fill: #efefef;
      }

      .cls-5 {
        fill: #dcdee2;
      }

      .cls-6 {
        fill: #ececec;
      }

      .cls-7 {
        fill: #808184;
      }

      .cls-8 {
        fill: #b5b5b5;
      }
    </style>
    <radialGradient id="radial-gradient" cx="436.72" cy="436.72" fx="436.72" fy="436.72" r="436.72" gradientUnits="userSpaceOnUse">
      <stop offset="0" stop-color="#fff"/>
      <stop offset=".17" stop-color="#ffe3d0"/>
      <stop offset=".58" stop-color="#ffa061"/>
      <stop offset=".87" stop-color="#ff761b"/>
      <stop offset="1" stop-color="#f60"/>
    </radialGradient>
  </defs>
  <g id="Objects">
    <g>
      <path class="cls-3" d="M873.44,436.71c0,58.95-11.55,116.15-34.32,169.99-22,52-53.49,98.71-93.59,138.82-40.11,40.1-86.8,71.58-138.81,93.59-53.86,22.78-111.04,34.32-169.99,34.32s-116.15-11.55-169.99-34.32c-52-22-98.71-53.49-138.82-93.59-40.1-40.11-71.58-86.81-93.59-138.82C11.55,552.86,0,495.66,0,436.71s11.55-116.14,34.32-169.99c22-52,53.49-98.71,93.59-138.81,40.11-40.1,86.81-71.59,138.82-93.59C320.57,11.55,377.77,0,436.72,0s116.14,11.55,169.99,34.32c52,21.99,98.7,53.49,138.81,93.59,40.1,40.1,71.58,86.8,93.59,138.81,22.78,53.86,34.32,111.04,34.32,169.99Z"/>
      <g>
        <path class="cls-1" d="M353.08,135.11c70.36,12.58,126.07,44.14,164.1,67.7,118.06,73.32,206.02,145.68,206.02,145.68l-12.41,12.8c-11.53,11.47-22.17,21.62-33.69,33.09-17.29,17.21-35.47,35.74-52.76,52.95l-209.26,203.39,30.51,20.43,203.49-197.65c16.4-15.88,33.69-33.09,50.1-48.97,0,0,27.04-26.03,35.47-35.74l39.46-38.83s-172.41-127-247.59-163.93c-75.18-36.93-110.13-50.74-174.31-49.58l.89-1.32Z"/>
        <path class="cls-1" d="M362.61,733.72c70.36-12.58,126.07-44.14,164.1-67.7,118.06-73.32,206.02-145.68,206.02-145.68l-12.41-12.8c-11.53-11.47-22.17-21.62-33.69-33.09-17.29-17.21-35.47-35.74-52.76-52.95l-209.26-203.39,30.51-20.43,203.49,197.65c16.4,15.88,33.69,33.09,50.1,48.97,0,0,27.04,26.03,35.47,35.74l39.46,38.83s-172.41,127-247.59,163.93c-75.18,36.93-110.13,50.74-174.31,49.58l.89,1.32Z"/>
      </g>
      <g>
        <circle class="cls-5" cx="436.72" cy="436.72" r="250"/>
        <g>
          <circle class="cls-4" cx="436.72" cy="436.72" r="207.49"/>
          <path class="cls-6" d="M644.21,436.71c0,114.59-92.9,207.49-207.49,207.49V229.23c114.59,0,207.49,92.9,207.49,207.49Z"/>
          <path class="cls-8" d="M436.72,363.48v146.48l-36.97,26.37c-13.52,9.65-32.28-.02-32.28-16.62v-165.97c0-16.6,18.76-26.27,32.28-16.62l36.97,26.37Z"/>
          <path class="cls-2" d="M516.09,453.34l-79.37,56.61v-146.48l79.37,56.62c11.41,8.14,11.41,25.1,0,33.24Z"/>
          <path class="cls-7" d="M516.09,453.34l-79.37,56.61v-146.48l79.37,56.62c11.41,8.14,11.41,25.1,0,33.24Z"/>
        </g>
      </g>
    </g>
  </g>
</svg>